<svg xmlns="http://www.w3.org/2000/svg" width="192" height="192" fill-rule="evenodd" clip-rule="evenodd" image-rendering="optimizeQuality" shape-rendering="geometricPrecision" text-rendering="geometricPrecision" viewBox="0 0 5080 5080"><defs><style>.fil1{fill:#000}</style></defs><g id="Слой_x0020_1"><circle cx="3195" cy="3430" r="1531" fill="#ffea00"/><g id="_2817289219232"><path d="M4458 3006l-201-202c-80-80-219-80-299 0L2870 3892l-150 550-37 37a70 70 0 0 0 0 99v1h1c14 13 32 20 49 20 18 0 36-7 50-21l37-37 550-150 1088-1088c82-82 82-216 0-299zm-1425 924l724-724 300 300-724 724-300-300zm-64 136l228 228-313 85 85-313zm1389-861l-201 201-300-300 201-201c26-26 72-26 98 0l202 202c27 27 27 71 0 99zM1055 3025h1839c39 0 71-32 71-71s-32-71-71-71H1055c-39 0-71 32-71 71s32 71 71 71zM2611 3308H1055c-39 0-71 32-71 71s32 71 71 71h1556c39 0 71-32 71-71s-32-71-71-71zM1055 1753h919c39 0 71-32 71-71s-32-71-71-71h-919c-39 0-71 32-71 71s32 71 71 71zM1974 3874c39 0 71-32 71-71s-32-71-71-71h-919c-39 0-71 32-71 71s32 71 71 71h919zM3106 2035H1055c-39 0-71 32-71 71s32 71 71 71h2051c39 0 71-32 71-71s-32-71-71-71zM1055 2601h990c39 0 71-32 71-71s-32-71-71-71h-990c-39 0-71 32-71 71s32 71 71 71zM3176 2530c0-39-32-71-71-71h-495c-39 0-71 32-71 71s32 71 71 71h495c39 0 71-32 71-71zM2378 2581c13-13 21-32 21-50s-8-37-21-50a74 74 0 0 0-100 0 73 73 0 0 0-21 50 71 71 0 0 0 121 50z" class="fil1"/><path d="M2328 4440H702V1046h495v141c0 39 32 71 71 71h1626c39 0 71-32 71-71v-141h495v1556c0 39 32 71 71 71s71-32 71-71V976c0-39-32-71-71-71h-566V764c0-39-32-71-71-71h-424V552c0-39-32-71-71-71h-636c-39 0-71 32-71 71v141h-424c-39 0-71 32-71 71v141H631c-39 0-71 32-71 71v3536c0 39 32 71 71 71h1697c39 0 71-32 71-71s-32-71-71-71zM1833 621h495v282h-495V621zm-495 212h354v141c0 39 32 71 71 71h636c39 0 71-32 71-71V833h354v282H1339V833z" class="fil1"/></g></g></svg>