<svg xmlns="http://www.w3.org/2000/svg" width="794" height="794" fill-rule="evenodd" clip-rule="evenodd" image-rendering="optimizeQuality" shape-rendering="geometricPrecision" text-rendering="geometricPrecision" viewBox="0 0 21000 21000"><defs><style>.str1,.str2,.str3,.str4{stroke:#66b0ed;stroke-width:50;stroke-linecap:round;stroke-linejoin:round}.str1,.str3,.str4{stroke:#e84146}.str1,.str4{stroke:#ffea00}.str4{stroke:#5b5b5b;stroke-width:20}.fil1{fill:none}.fil2,.fil3,.fil4{fill:#66b0ed;fill-rule:nonzero}.fil2,.fil4{fill:#e84146}.fil2{fill:#ffea00}</style></defs><g id="Слой_x0020_1"><path d="M11616 60c5766 617 9941 5791 9324 11557s-5791 9941-11557 9324S-558 15150 59 9384 5850-557 11616 60zm-255 2388a8099 8099 0 1 1-1722 16106 8099 8099 0 0 1 1722-16106z"/><path class="fil1" stroke="#404040" stroke-dasharray="40 60" stroke-width="20" d="M6123 1282l763 1606m7228 15225l763 1606M4735 2079l1005 1467m9522 13908l1005 1467M3489 3083l1222 1292m11581 12248l1222 1292M2415 4271l1409 1085m13355 10286l1409 1085M1543 5614l1561 851m14796 8068l1561 851M889 7075l1675 597M471 8621l1748 327m16566 3101l1748 327M300 10213l1778 50m16850 471l1778 50M382 11813l1764-229m16716-2170l1764-229M714 13380l1706-502m16169-4758l1706-502M1286 14876l1606-763m15225-7228l1606-763M2083 16264l1467-1005m13908-9522l1467-1005M3087 17510l1292-1222m-104 2296l1085-1409M15646 3820l1085-1409m-1343-873l-851 1561M6469 17895l-851 1561M13927 884l-597 1675M7676 18435l-597 1675M12380 466l-327 1748M8952 18780l-327 1748M10788 295l-50 1778m-471 16850l-50 1778M9188 377l229 1764m2170 16716l229 1764m1065-2037l502 1706"/><path d="M11428 1690c364 39 493-774 854-707 360 67 160 866 513 961 354 95 608-687 954-565 345 122 22 880 357 1029 334 150 708-584 1030-409s-116 872 191 1072 791-466 1082-243-251 844 21 1089c272 246 854-336 1106-71 252 266-380 794-150 1079s896-199 1104 103c207 302-499 725-317 1042 183 318 916-56 1074 275s-606 638-476 980c131 342 914 88 1018 439s-699 535-623 894c76 358 889 230 936 593 48 363-774 419-755 785s842 366 832 732-830 293-869 657 774 493 707 854c-67 360-866 160-961 513-95 354 687 608 565 954-122 345-880 22-1029 357-150 334 584 708 409 1030s-872-116-1072 191 466 791 243 1082-844-251-1089 21c-246 272 336 854 71 1106-266 252-794-380-1079-150s199 896-103 1104c-302 207-725-499-1042-317-318 183 56 916-275 1074s-638-606-980-476c-342 131-88 914-439 1018s-535-699-894-623c-358 76-230 889-593 936-363 48-419-774-785-755s-366 842-732 832-293-830-657-869-493 774-854 707c-360-67-160-866-513-961-354-95-608 687-954 565-345-122-22-880-357-1029-334-150-708 584-1030 409s116-872-191-1072-791 466-1082 243 251-844-21-1089c-272-246-854 336-1106 71-252-266 380-794 150-1079s-896 199-1104-103c-207-302 499-725 317-1042-183-318-916 56-1074-275s606-638 476-980c-131-342-914-88-1018-439s699-535 623-894c-76-358-889-230-936-593-48-363 774-419 755-785s-842-366-832-732 830-293 869-657-774-493-707-854c67-360 866-160 961-513 95-354-687-608-565-954 122-345 880-22 1029-357 150-334-584-708-409-1030s872 116 1072-191-466-791-243-1082 844 251 1089-21c246-272-336-854-71-1106 266-252 794 380 1079 150s-199-896 103-1104c302-207 725 499 1042 317 318-183-56-916 275-1074s638 606 980 476c342-131 88-914 439-1018s535 699 894 623c358-76 230-889 593-936 363-48 419 774 785 755s366-842 732-832 293 830 657 869z" class="fil1"/><path d="M18594 6899c148 335 917 40 1039 386 122 345-670 571-576 925s900 183 966 543c67 360-751 459-713 823s860 322 869 688c10 366-813 336-833 702s799 452 751 815-856 205-933 563 718 572 614 923-877 68-1009 410 620 677 462 1008-877-70-1061 247 507 766 299 1067c-208 302-856-206-1087 78s381 835 128 1101c-252 266-813-338-1085-93-273 245 245 885-46 1108s-750-461-1058-262 104 912-218 1087-669-572-1004-424-40 917-386 1039c-345 122-571-670-925-576s-183 900-543 966c-360 67-459-751-823-713s-322 860-688 869c-366 10-336-813-702-833s-452 799-815 751-205-856-563-933-572 718-923 614-68-877-410-1009-677 620-1008 462 70-877-247-1061-766 507-1067 299c-302-208 206-856-78-1087s-835 381-1101 128c-266-252 338-813 93-1085-245-273-885 245-1108-46s461-750 262-1058-912 104-1087-218 572-669 424-1004-917-40-1039-386c-122-345 670-571 576-925s-900-183-966-543c-67-360 751-459 713-823s-860-322-869-688c-10-366 813-336 833-702s-799-452-751-815 856-205 933-563-718-572-614-923 877-68 1009-410-620-677-462-1008 877 70 1061-247-507-766-299-1067c208-302 856 206 1087-78s-381-835-128-1101c252-266 813 338 1085 93 273-245-245-885 46-1108s750 461 1058 262-104-912 218-1087 669 572 1004 424 40-917 386-1039c345-122 571 670 925 576s183-900 543-966c360-67 459 751 823 713s322-860 688-869c366-10 336 813 702 833s452-799 815-751 205 856 563 933 572-718 923-614 68 877 410 1009 677-620 1008-462-70 877 247 1061 766-507 1067-299c302 208-206 856 78 1087s835-381 1101-128c266 252-338 813-93 1085 245 273 885-245 1108 46s-461 750-262 1058 912-104 1087 218-572 669-424 1004z" class="fil1"/><path d="M11478 1352a9206 9206 0 0 1 8175 10133 9206 9206 0 0 1-10133 8175A9206 9206 0 0 1 1345 9527a9206 9206 0 0 1 10133-8175z" class="fil1"/><path d="M9578 794l10 148 24-2-4-51 30-2a48 48 0 0 0 46-52c-1-14-6-25-17-34-10-9-22-12-36-11l-54 4zm30 73l-4-52 30-2c14-1 25 9 27 24 1 15-9 26-23 28l-30 2zm147 66c16-1 28-7 38-19s15-25 13-41a55 55 0 0 0-60-51c-15 1-28 7-38 19a51 51 0 0 0-13 41 55 55 0 0 0 60 51zm-26-30c-7-6-11-14-11-23-1-10 2-18 8-25s13-11 23-11c9-1 17 2 24 8s11 14 11 23c1 10-2 18-8 25s-13 11-23 11c-9 1-17-2-24-8zm152 21c20-1 38-13 46-31l-20-10c-4 10-14 17-27 18-9 1-17-2-24-8s-10-13-11-23 2-18 8-24c6-7 13-11 23-11 13-1 23 5 29 14l19-13a54 54 0 0 0-49-24c-16 1-29 7-39 19a54 54 0 0 0-13 41c1 16 7 28 19 38s25 14 41 13zm44-112l2 22 35-2 6 84 23-2-6-84 34-2-2-22-92 6zm240 40c7-5 11-13 11-22 0-17-13-29-35-28l-50 1 2 106 54-1c22 0 34-13 34-31 0-11-6-19-16-24zm-26-31c9 0 14 4 14 11 0 8-4 12-14 12l-26 1-1-23 26-1zm-25 67l-1-24 30-1c9 0 14 4 15 11 0 8-5 13-14 13l-30 1zm108-21l-1-67-22 1 2 106h18l53-68 2 67 22-1-2-106h-18l-53 68zm190-71l-81 2 1 46c0 16-3 29-9 39h-13l1 50 22-1-1-28 73-2 1 28 22-1-1-50h-14l-2-84zm-63 86c4-10 6-23 6-38l-1-25 36-1 1 63-43 1zm120-20l-1-67-22 1 2 106h18l53-68 2 67 22-1-2-106h-18l-53 68zm187-65l-32 48-29-50-23-1-3 106 22 1 2-69 29 49h3l32-47-2 70 22 1 3-106-23-1zm96 112c16 1 29-4 40-15 11-10 17-23 18-39s-5-29-15-40a51 51 0 0 0-39-17c-15-1-29 4-40 15a55 55 0 0 0-18 39c-1 16 5 29 15 40s24 17 39 17zm-22-33a35 35 0 0 1 1-48 34 34 0 0 1 47 1 35 35 0 0 1-1 48 34 34 0 0 1-47-1zm149 37c21 1 39-9 49-26l-19-12c-5 10-16 16-29 15a33 33 0 0 1-32-34c0-10 4-17 10-23 7-6 14-9 24-9 13 0 23 7 27 17l20-11c-8-17-26-28-46-29-16-1-29 4-41 15a51 51 0 0 0-17 39c-1 16 4 29 15 40 10 11 24 17 39 17zm55-107l-1 22 35 1-3 84 23 1 3-84 34 1 1-22-92-3zm130 73l5-67-22-2-9 105 18 1 59-63-5 67 22 2 9-105-18-1-59 62z" class="fil2"/><path d="M9516 19650A9206 9206 0 0 1 1341 9517a9206 9206 0 0 1 10133-8175 9206 9206 0 0 1 8175 10133 9206 9206 0 0 1-10133 8175z" class="fil1"/><path d="M11416 20209l-10-148-24 2 4 51-30 2a48 48 0 0 0-46 52c1 14 6 25 17 34 10 9 22 12 36 11l54-4zm-30-73l4 52-30 2c-14 1-25-9-27-24-1-15 9-26 23-28l30-2zm-147-66c-16 1-28 7-38 19a51 51 0 0 0-13 41 55 55 0 0 0 60 51c15-1 28-7 38-19s15-25 13-41a55 55 0 0 0-60-51zm26 30c7 6 11 14 11 23 1 10-2 18-8 25s-13 11-23 11c-9 1-17-2-24-8s-11-14-11-23c-1-10 2-18 8-25s13-11 23-11c9-1 17 2 24 8zm-152-21c-20 1-38 13-46 31l20 10c4-10 14-17 27-18 9-1 17 2 24 8s10 13 11 23-2 18-8 24c-6 7-13 11-23 11-13 1-23-5-29-14l-19 13c10 16 29 25 49 24 16-1 29-7 39-19 10-11 14-25 13-41s-7-28-19-38a55 55 0 0 0-41-13zm-44 112l-2-22-35 2-6-84-23 2 6 84-34 2 2 22 92-6zm-240-40c-7 5-11 13-11 22 0 17 13 29 35 28l50-1-2-106-54 1c-22 0-34 13-34 31 0 11 6 19 16 24zm26 31c-9 0-14-4-14-11 0-8 4-12 14-12l26-1 1 23-26 1zm25-67l1 24-30 1c-9 0-14-4-15-11 0-8 5-13 14-13l30-1zm-108 21l1 67 22-1-2-106h-18l-53 68-1-67-22 1 2 106h18l53-68zm-190 71l81-2-1-46c0-16 3-29 9-39h13l-1-50-22 1 1 28-73 2-1-28h-22l1 50h14l2 84zm63-86c-4 10-6 23-6 38l1 25-36 1-1-63 43-1zm-120 20l1 67 22-1-2-106h-18l-53 68-1-67-22 1 2 106h18l53-68zm-187 65l32-48 29 50 23 1 3-106-22-1-2 69-29-49h-3l-32 47 2-70-22-1-3 106 23 1zm-96-112c-16-1-29 4-40 15a55 55 0 0 0-18 39c-1 16 5 29 15 40s23 17 39 17c15 1 29-4 40-15 11-10 17-23 18-39s-5-29-15-40a52 52 0 0 0-39-17zm22 33a35 35 0 0 1-1 48 34 34 0 0 1-47-1 35 35 0 0 1 1-48 34 34 0 0 1 47 1zm-149-37c-21-1-39 9-49 26l19 12c5-10 16-16 29-15a33 33 0 0 1 32 34c0 10-4 17-10 23-7 6-14 9-24 9-13 0-23-7-27-17l-20 11c8 17 26 28 46 29 16 1 29-4 41-15 11-10 17-23 17-39 1-16-4-29-15-40a52 52 0 0 0-39-17zm-55 107l1-22-35-1 3-84-23-1-3 84-34-1-1 22 92 3zm-130-73l-5 67 22 2 9-105-18-1-59 63 5-67-22-2-9 105 18 1 59-62z" class="fil2"/><path d="M18912 6767a9206 9206 0 0 1-4687 12146 9206 9206 0 0 1-12146-4687A9206 9206 0 0 1 6766 2080a9206 9206 0 0 1 12146 4687z" class="fil1"/><path d="M18445 4840l-123 83 14 20 42-28 17 25c8 12 18 19 31 21 13 3 25 0 37-8 11-8 18-18 21-31s0-25-8-37l-31-45zm-48 62l43-29 17 25c8 12 5 27-8 35-12 8-27 6-35-6l-17-25zm16 160a54 54 0 0 0 77 15 56 56 0 0 0 15-78 54 54 0 0 0-77-15 56 56 0 0 0-15 78zm13-37c2-9 7-16 15-21s16-7 25-5 16 6 21 14 7 16 5 25-7 16-15 21-16 7-25 5-16-6-21-14-7-16-5-25zm58 142c11 17 30 26 49 24l-2-23c-11 1-22-4-29-14-5-8-7-16-5-25s7-16 14-21c8-5 16-7 25-6 9 2 16 6 21 14 7 11 8 22 2 32l20 10c9-16 8-37-4-54a56 56 0 0 0-78-15 54 54 0 0 0-15 77zm119-18l-18 12 19 29-70 47 13 19 70-47 19 29 18-12-51-76zm70 204l68 13-14-24-61-11 40-24-12-20-91 55 12 20 42-25-19 62 14 23 21-69zm6 119c8 13 19 22 34 26s29 2 42-7c13-8 22-20 25-34 4-15 1-29-7-42s-19-22-34-26-29-2-42 7c-13 8-22 20-25 34-4 15-1 29 7 42zm15-37c2-9 7-16 16-21 8-5 17-6 25-4 9 2 15 7 20 15s6 16 4 25-7 16-16 21c-8 5-17 6-25 4-9-2-15-7-20-15s-6-16-4-25zm120 50l-52 31c-16 10-26 8-31-4l-18 11c12 24 31 31 60 13l34-20 18 30-72 43 12 20 91-55-42-69zm10 146l57-35-12-19-91 55 9 15 86 12-58 35 12 19 91-55-9-15-85-12zm98 134c-6-5-11-11-16-19-7-13-5-23 6-29l30-16-11-20-32 17c-22 12-26 32-14 56 4 8 10 15 17 21l-32 17 11 20 93-50-11-20-43 23zm59 140l9-4c14-7 23-18 28-32s4-28-4-41c-8-14-19-24-33-28s-28-3-42 5-23 19-28 33c-4 14-2 29 6 44 10 18 24 28 42 30l1-22c-11-1-19-7-24-18-8-15-7-31 6-42l40 74zm-24-83c16-5 30 1 38 16 7 13 5 28-9 39l-29-55zm16 167c10 18 28 29 47 29l1-23c-11 0-22-6-28-17-4-8-5-17-3-25 3-8 8-15 16-19 8-5 17-5 25-3 9 3 15 8 20 16 6 11 5 23-1 32l19 12c11-15 11-36 2-55-8-14-19-23-33-28-14-4-28-3-42 5-14 7-23 18-27 33s-3 29 5 43zm120-6l-19 10 16 31-74 40 11 20 74-40 16 30 19-10-44-81zm40 187c8 5 16 5 25 0 15-7 21-24 12-44l-21-45-96 45 23 49c10 20 26 26 42 18 10-5 15-13 15-25zm18-36c4 8 3 14-5 18-7 3-13 1-17-8l-11-24 21-10 11 24zm-71 5l22-10 13 27c4 8 2 15-4 18-7 4-13 1-17-8l-13-27zm137 123c7-13 7-27 0-41-6-13-16-22-31-27-14-5-28-4-42 3a55 55 0 0 0-28 72c7 15 18 23 32 26l-14 7 10 21 96-45-10-21-14 6zm-81-25c3-9 9-15 18-19s17-5 26-2 15 9 19 17c4 9 5 17 1 26-3 8-9 15-18 19s-17 5-26 2c-8-3-15-9-19-18s-5-17-2-26zm123 199c8 5 16 5 25 0 15-7 21-24 12-44l-21-45-96 45 23 49c10 20 26 26 42 18 10-5 15-13 15-25zm18-36c4 8 3 14-5 18-7 3-13 1-17-8l-11-24 21-10 11 24zm-71 5l22-10 13 27c4 8 2 15-4 18-7 4-13 1-17-8l-13-27zm63 90l61-29-10-20-96 45 8 16 84 20-61 29 10 20 96-45-8-16-84-20zm80 140c8 6 17 6 26 2 8-3 13-9 16-18s2-19-2-30c-7-17-20-27-37-28l-3 21c10 0 17 5 21 15 4 9 2 17-5 20s-13 0-17-9l-4-10-19 8 6 14c4 9 2 16-5 19-8 3-15-2-20-12-5-12-3-21 5-29l-17-13c-13 13-15 30-7 50 10 24 29 33 45 26 11-4 16-13 17-25zm8 60l62-26-9-21-98 40 7 16 83 25-62 26 9 21 98-40-7-16-83-25zm95 55l-20 8 13 32-78 32 9 21 78-32 13 32 20-8-35-85zm-42 183c6 14 16 25 30 30 14 6 28 6 43 0 14-6 25-16 30-30 6-14 6-28 0-43-6-14-16-25-30-30-14-6-28-6-43 0-14 6-25 16-30 30-6 14-6 28 0 43zm20-34c3-8 10-14 19-18s17-4 26 0c8 3 14 10 18 18 4 9 4 17 0 25-3 8-10 14-18 18-9 4-17 4-26 0-8-3-14-9-18-18s-4-17 0-25zm89 151c7 5 16 6 25 2 16-7 22-23 14-43l-19-46-98 40 21 50c8 21 25 27 41 21 11-4 16-12 17-24zm20-35c4 9 2 14-5 17s-13 0-16-8l-10-24 22-9 10 24zm-72 1l22-9 12 28c3 8 2 15-5 18-8 3-13 0-17-9l-12-28z" class="fil3"/><path d="M2083 14229A9206 9206 0 0 1 6770 2083a9206 9206 0 0 1 12146 4687 9206 9206 0 0 1-4687 12146 9206 9206 0 0 1-12146-4687z" class="fil1"/><path d="M2556 16165l123-83-14-20-42 28-17-25c-8-12-18-19-31-21-13-3-25 0-37 8-11 8-18 18-21 31s0 25 8 37l31 45zm48-62l-43 29-17-25c-8-12-5-27 8-35 12-8 27-6 35 6l17 25zm-16-160a54 54 0 0 0-77-15 56 56 0 0 0-15 78 54 54 0 0 0 77 15 56 56 0 0 0 15-78zm-13 37c-2 9-7 16-15 21s-16 7-25 5-16-6-21-14-7-16-5-25 7-16 15-21 16-7 25-5 16 6 21 14 7 16 5 25zm-58-142a52 52 0 0 0-49-24l2 23c11-1 22 4 29 14 5 8 7 16 5 25s-7 16-14 21c-8 5-16 7-25 6-9-2-16-6-21-14-7-11-8-22-2-32l-20-10c-9 16-8 37 4 54a56 56 0 0 0 78 15 54 54 0 0 0 15-77zm-125 9l18-12-19-29 70-47-13-19-70 47-19-29-18 12 51 76zm-70-204l-68-13 14 24 61 11-40 24 12 20 91-55-12-20-42 25 19-62-14-23-21 69zm-6-119c-8-13-19-22-34-26s-29-2-42 7c-13 8-22 20-25 34-4 15-1 29 7 42s19 22 34 26 29 2 42-7c13-8 22-20 25-34 4-15 1-29-7-42zm-15 37c-2 9-7 16-16 21-8 5-17 6-25 4-9-2-15-7-20-15s-6-16-4-25 7-16 16-21c8-5 17-6 25-4 9 2 15 7 20 15s6 16 4 25zm-120-50l52-31c16-10 26-8 31 4l18-11c-12-24-31-31-60-13l-34 20-18-30 72-43-12-20-91 55 42 69zm-10-146l-57 35 12 19 91-55-9-15-86-11 58-35-12-19-91 55 9 15 85 12zm-98-134c6 5 11 11 16 19 7 13 5 23-6 29l-30 16 11 20 32-17c22-12 26-32 14-56-4-8-10-15-17-21l32-17-11-20-93 50 11 20 43-23zm-59-140l-9 4c-14 7-23 18-28 32s-4 28 4 41c8 14 19 24 33 28s28 3 42-5 23-19 28-33c4-14 2-29-6-44-10-18-24-28-42-30l-1 22c11 1 19 7 24 18 8 15 7 31-6 42l-40-74zm24 83c-16 5-30-1-38-16-7-13-5-28 9-39l29 55zm-16-167a54 54 0 0 0-47-29l-1 23c11 0 22 6 28 17 4 8 5 17 3 25-3 8-8 15-16 19-8 5-17 5-25 3-9-3-15-8-20-16-6-11-5-23 1-32l-19-12c-11 15-11 36-2 55 8 14 19 23 33 28 14 4 28 3 42-5 14-7 23-18 27-33s3-29-5-43zm-120 6l19-10-16-31 74-40-11-20-74 40-16-30-19 10 44 81zm-40-187c-8-5-16-5-25 0-15 7-21 24-12 44l21 45 96-45-23-49c-10-20-26-26-42-18-10 5-15 13-15 25zm-18 36c-4-8-3-14 5-18 7-3 13-1 17 8l11 24-21 10-11-24zm71-5l-22 10-13-27c-4-8-2-15 4-18 7-4 13-1 17 8l13 27zm-137-123c-7 13-7 27 0 41 6 13 16 22 31 27 14 5 28 4 42-3a55 55 0 0 0 28-72c-7-15-18-23-32-26l14-7-10-21-96 45 10 21 14-6zm81 25c-3 9-9 15-18 19s-17 5-26 2-15-9-19-17c-4-9-5-17-1-26 3-8 9-15 18-19s17-5 26-2c8 3 15 9 19 18s5 17 2 26zm-123-199c-8-5-16-5-25 0-15 7-21 24-12 44l21 45 96-45-23-49c-10-20-26-26-42-18-10 5-15 13-15 25zm-18 36c-4-8-3-14 5-18 7-3 13-1 17 8l11 24-21 10-11-24zm71-5l-22 10-13-27c-4-8-2-15 4-18 7-4 13-1 17 8l13 27zm-63-90l-61 29 10 20 96-45-8-16-84-20 61-29-10-20-96 45 8 16 84 20zm-80-140c-8-6-17-6-26-2-8 3-13 9-16 18s-2 19 2 30c7 17 20 27 37 28l3-21c-10 0-17-5-21-15-4-9-2-17 5-20s13 0 17 9l4 10 19-8-6-14c-4-9-2-16 5-19 8-3 15 2 20 12 5 12 3 21-5 29l17 13c13-13 15-30 7-50-10-24-29-33-45-26-11 4-16 13-17 25zm-8-60l-62 26 9 21 98-40-7-16-83-25 62-26-9-21-98 40 7 16 83 25zm-95-55l20-8-13-32 78-32-9-21-78 32-13-32-20 8 35 85zm42-183c-6-14-16-25-30-30-14-6-28-6-43 0-14 6-25 16-30 30-6 14-6 28 0 43 6 14 16 25 30 30 14 6 28 6 43 0 14-6 25-16 30-30 6-14 6-28 0-43zm-20 34c-3 8-10 14-19 18s-17 4-26 0c-8-3-14-10-18-18-4-9-4-17 0-25 3-8 10-14 18-18 9-4 17-4 26 0 8 3 14 9 18 18s4 17 0 25zm-89-151c-7-5-16-6-25-2-16 7-22 23-14 43l19 46 98-40-21-50c-8-21-25-27-41-21-11 4-16 12-17 24zm-20 35c-4-9-2-14 5-17s13 0 16 8l10 24-22 9-10-24zm72-1l-22 9-12-28c-3-8-2-15 5-18 8-3 13 0 17 9l12 28z" class="fil3"/><path d="M17938 15925A9207 9207 0 1 1 3061 5073a9207 9207 0 0 1 14877 10852z" class="fil1"/><path d="M19472 14327l-136-58-10 22 47 20-12 28c-5 13-6 25-1 38s14 21 26 27c13 5 25 6 38 1 12-5 21-14 27-27l21-50zm-78-7l48 20-12 28c-6 13-20 19-33 13-14-6-20-20-14-33l12-28zm-126 100c-6 14-6 29-1 43 6 14 16 24 30 31 14 6 29 6 43 1 14-6 24-16 30-30s6-29 1-43c-6-14-16-24-30-31-14-6-29-6-43-1-14 6-24 16-30 30zm38-9c8-3 17-3 26 1s15 10 18 18 3 17 0 25c-4 9-10 15-18 18s-17 3-26-1-15-10-18-18-3-17 0-25c4-9 10-15 18-18zm-91 124c-9 18-7 39 4 55l19-13c-7-9-8-21-2-32a32 32 0 0 1 44-15c9 4 14 10 17 19 3 8 2 17-2 25-6 11-15 18-27 18l2 23c19 0 36-12 45-31 7-14 8-29 3-43s-14-25-29-32c-14-7-28-8-43-3-14 5-25 15-32 29zm75 94l-20-10-15 31-75-37-10 21 75 37-15 31 20 10 40-83zm-136 163l26 65 12-25-24-57 42 20 10-21-95-46-10 21 44 21-63 18-12 25 70-20zm-97 70c-7 14-8 28-3 43 5 14 14 25 29 32 14 7 28 8 43 3 14-5 25-15 32-29s8-28 3-43c-5-14-14-25-29-32-14-7-28-8-43-3-14 5-25 15-32 29zm39-7c8-3 17-2 26 2s14 11 17 19 2 17-2 25-10 14-19 17c-8 3-17 2-26-2s-14-11-17-19-2-17 2-25 10-14 19-17zm20 133l-53-29c-17-9-20-19-12-29l-19-10c-15 23-11 42 19 59l34 19-17 31-73-40-11 20 93 51 39-71zm-122 82l59 32 11-20-93-51-8 15 33 80-59-32-11 20 93 51 8-15-33-80zm-62 151c1-8 3-15 7-23 7-13 16-17 28-11l30 17 11-20-32-18c-22-12-41-4-54 19-4 8-7 17-9 26l-31-17-11 20 93 51 11-20-42-23zm-86 126l8 5c14 7 28 9 42 6 14-4 25-12 33-26s10-29 5-43c-4-14-13-25-27-33s-28-10-43-5c-14 4-26 14-34 29-10 18-11 35-2 52l19-11c-5-10-4-20 2-30 8-15 23-22 38-18l-41 74zm57-65c13 11 16 26 7 41-7 13-21 19-37 14l30-55zm-134 103a54 54 0 0 0-2 55l20-11c-6-10-6-22 1-33 5-8 12-13 20-15 9-2 17 0 25 5s13 12 15 20c2 9 1 17-4 25-7 11-17 16-28 15l-1 23c19 2 37-8 48-26 8-13 11-28 7-42-3-15-12-26-25-34s-27-11-42-7c-15 3-26 12-35 26zm65 101l-19-12-18 30-71-44-12 19 71 44-18 29 19 12 48-78zm-139 127c0 9 5 16 13 21 15 9 31 5 43-14l26-42-90-56-29 46c-12 19-8 36 7 45 10 6 19 6 29-1zm40-4c-5 8-11 10-17 6-7-4-8-10-3-18l14-23 20 12-14 22zm-43-58l21 13-16 26c-5 8-11 10-17 6-7-4-8-11-3-19l16-26zm-29 181c15-1 26-8 35-22 8-12 10-26 6-40-4-15-12-26-26-34-13-8-27-11-42-8s-26 11-33 23c-8 14-10 27-4 41l-13-8-12 19 90 56 12-19-13-8zm-23-82c9-2 17 0 26 5 8 5 13 12 16 21 2 9 1 17-4 25s-12 13-21 15-17 1-26-5c-8-5-13-12-16-21-2-9-1-17 5-25 5-8 12-13 21-15zm-99 200c-1 10 4 17 12 23 7 5 15 6 24 4s17-8 24-18c11-15 12-31 4-47l-19 9c5 9 5 17-1 26-6 8-13 10-20 6-6-4-7-12-2-19l6-9-17-11-9 12c-5 8-13 10-19 6-7-5-7-14 0-23 7-10 16-14 27-11l2-22c-18-4-33 3-46 21-15 22-13 42 2 52 10 7 20 7 30 0zm-38 119c15 0 27-7 36-20a54 54 0 0 0-16-75c-13-9-27-12-41-10-15 2-26 9-34 21-9 13-11 27-6 41l-13-9-13 19 87 60 13-19-12-9zm-18-83c9-1 17 1 25 6 8 6 13 13 14 22 2 9 0 17-6 25-5 8-13 13-22 14-9 2-17 0-25-6s-13-13-15-22 0-17 6-25c5-8 13-13 21-14zm-17 160c6-9 9-18 7-28s-6-17-14-23c-12-9-29-8-41 1l-15-45-15 22 14 42-7 10-29-20-13 18 87 60 27-39zm-42-28c5-8 14-10 21-5 8 5 8 14 3 22l-13 19-25-17 13-19zm-84 119c0 9 4 16 12 22 14 10 31 6 44-11l29-41-87-60-31 44c-13 18-10 36 5 46 9 7 19 7 29 1zm41-2c-5 8-11 9-18 5-6-4-7-11-2-18l15-22 19 13-15 22zm-39-60l20 14-17 25c-5 7-12 9-18 5-7-5-7-11-2-19l17-25zm-97 98a55 55 0 0 0 11 78c12 10 26 13 41 11s27-9 37-22a55 55 0 0 0-11-78 51 51 0 0 0-41-11c-15 2-27 9-37 22zm40 1c9-1 17 1 25 7s12 13 13 22-1 17-7 24-13 12-22 13-17-1-25-7-12-13-13-22 1-17 7-24 13-12 22-13zm-68 131l13 68 17-22-12-61 37 28 14-18-84-64-14 18 39 30-65 5-17 22 72-6z" class="fil4"/><path d="M3056 5078a9206 9206 0 1 1 14877 10849A9206 9206 0 0 1 3056 5078z" class="fil1"/><path d="M1523 6676l136 58 10-22-47-20 12-28c5-13 6-25 1-38s-14-21-26-27c-13-5-25-6-38-1-12 5-21 14-27 27l-21 50zm78 7l-48-20 12-28c6-13 20-19 33-13 14 6 20 20 14 33l-12 28zm126-100c6-14 6-29 1-43-6-14-16-24-30-31-14-6-29-6-43-1-14 6-24 16-30 30s-6 29-1 43c6 14 16 24 30 31 14 6 29 6 43 1 14-6 24-16 30-30zm-38 9c-8 3-17 3-26-1s-15-10-18-18-3-17 0-25c4-9 10-15 18-18s17-3 26 1 15 10 18 18 3 17 0 25c-4 9-10 15-18 18zm91-124c9-18 7-39-4-55l-19 13c7 9 8 21 2 32a32 32 0 0 1-44 15c-9-4-14-10-17-19-3-8-2-17 2-25 6-11 15-18 27-18l-2-23c-19 0-36 12-45 31-7 14-8 29-3 43s14 25 29 32c14 7 28 8 43 3 14-5 25-15 32-29zm-75-94l20 10 15-31 75 37 10-21-75-37 15-31-20-10-40 83zm136-163l-26-65-12 25 24 57-42-20-10 21 95 46 10-21-44-21 63-18 12-25-70 20zm97-70c7-14 8-28 3-43-5-14-14-25-29-32-14-7-28-8-43-3-14 5-25 15-32 29s-8 28-3 43c5 14 14 25 29 32 14 7 28 8 43 3 14-5 25-15 32-29zm-39 7c-8 3-17 2-26-2s-14-11-17-19-2-17 2-25 10-14 19-17c8-3 17-2 26 2s14 11 17 19 2 17-2 25-10 14-19 17zm-20-133l53 29c17 9 20 19 12 29l19 10c15-23 11-42-19-59l-34-19 17-31 73 40 11-20-93-51-39 71zm122-82l-59-32-11 20 93 51 8-15-33-80 59 32 11-20-93-51-8 15 33 80zm62-151c-1 8-3 15-7 23-7 13-16 17-28 11l-30-17-11 20 32 18c22 12 41 4 54-19 4-8 7-17 9-26l31 17 11-20-93-51-11 20 42 23zm86-126l-8-5c-14-7-28-9-42-6-14 4-25 12-33 26s-10 29-5 43c4 14 13 25 27 33s28 10 43 5c14-4 26-14 34-29 10-18 11-35 2-52l-19 11c5 10 4 20-2 30-8 15-23 22-38 18l41-74zm-57 65c-13-11-16-26-7-41 7-13 21-19 37-14l-30 55zm134-103c11-17 11-38 2-55l-20 11c6 10 6 22-1 33-5 8-12 13-20 15-9 2-17 0-25-5s-13-12-15-20c-2-9-1-17 4-25 7-11 17-16 28-15l1-23c-19-2-37 8-48 26-8 13-11 28-7 42 3 15 12 26 25 34s27 11 42 7c15-3 26-12 35-26zm-65-101l19 12 18-30 71 44 12-19-71-44 18-29-19-12-48 78zm139-127c0-9-5-16-13-21-15-9-31-5-43 14l-26 42 90 56 29-46c12-19 8-36-7-45-10-6-19-6-29 1zm-40 4c5-8 11-10 17-6 7 4 8 10 3 18l-14 23-20-12 14-22zm43 58l-21-13 16-26c5-8 11-10 17-6 7 4 8 11 3 19l-16 26zm29-181c-15 1-26 8-35 22-8 12-10 26-6 40 4 15 12 26 26 34 13 8 27 11 42 8s26-11 33-23c8-14 10-27 4-41l13 8 12-19-90-56-12 19 13 8zm23 82c-9 2-17 0-26-5-8-5-13-12-16-21-2-9-1-17 4-25s12-13 21-15 17-1 26 5c8 5 13 12 16 21 2 9 1 17-5 25-5 8-12 13-21 15zm99-200c1-10-4-17-12-23-7-5-15-6-24-4s-17 8-24 18a43 43 0 0 0-4 47l19-9c-5-9-5-17 1-26 6-8 13-10 20-6 6 4 7 12 2 19l-6 9 17 11 9-12c5-8 13-10 19-6 7 5 7 14 0 23-7 10-16 14-27 11l-2 22c18 4 33-3 46-21 15-22 13-42-2-52-10-7-20-7-30 0zm38-119c-15 0-27 7-36 20a54 54 0 0 0 16 75c13 9 27 12 41 10 15-2 26-9 34-21 9-13 11-27 6-41l13 9 13-19-87-60-13 19 12 9zm18 83c-9 1-17-1-25-6-8-6-13-13-14-22-2-9 0-17 6-25 5-8 13-13 22-14 9-2 17 0 25 6s13 13 15 22 0 17-6 25c-5 8-13 13-21 14zm17-160c-6 9-9 18-7 28s6 17 14 23c12 9 29 8 41-1l15 45 15-22-14-42 7-10 29 20 13-18-87-60-27 39zm42 28c-5 8-14 10-21 5-8-5-8-14-3-22l13-19 25 17-13 19zm84-119c0-9-4-16-12-22-14-10-31-6-44 11l-29 41 87 60 31-44c13-18 10-36-5-46-9-7-19-7-29-1zm-41 2c5-8 11-9 18-5 6 4 7 11 2 18l-15 22-19-13 15-22zm39 60l-20-14 17-25c5-7 12-9 18-5 7 5 7 11 2 19l-17 25zm97-98a55 55 0 0 0-11-78 51 51 0 0 0-41-11c-15 2-27 9-37 22a55 55 0 0 0 11 78c12 10 26 13 41 11s27-9 37-22zm-40-1c-9 1-17-1-25-7s-12-13-13-22 1-17 7-24 13-12 22-13 17 1 25 7 12 13 13 22-1 17-7 24-13 12-22 13zm68-131l-13-68-17 22 12 61-37-28-14 18 84 64 14-18-39-30 65-5 17-22-72 6z" class="fil4"/><path d="M18133 4341c148 183-688 724-569 885s942-390 1028-267c133 194-742 668-636 838s970-315 1046-186c117 204-792 608-700 785 92 178 992-238 1057-103 101 213-838 543-759 728 78 185 1007-159 1062-20 84 220-878 476-814 666 63 190 1017-80 1060 63 66 226-912 406-864 600 48 195 1020 0 1052 146 48 230-941 333-908 531s1017 80 1038 229c30 234-965 258-947 458 17 200 1007 160 1016 309 12 235-982 182-980 382s992 238 989 388c-7 235-993 104-1007 304s970 315 955 464c-25 234-998 26-1028 224s942 390 916 538c-43 231-997-53-1042 143-45 195 909 463 871 608-61 227-990-131-1050 60s869 533 821 675c-79 222-977-208-1052-22s825 599 765 737c-96 215-957-284-1047-105s775 662 705 795c-113 207-932-358-1035-187-103 172 721 721 640 848-129 197-901-430-1018-267s662 776 572 895c-144 187-865-500-993-346-129 153 599 825 500 937-158 175-823-566-963-423-141 143 533 870 425 974-171 162-776-629-927-497-151 131 463 909 347 1004-183 148-724-688-885-569s390 942 267 1028c-194 133-668-742-838-636s315 970 186 1046c-204 117-608-792-785-700-178 92 238 992 103 1057-213 101-543-838-728-759-185 78 159 1007 20 1062-220 84-476-878-666-814-190 63 80 1017-63 1060-226 66-406-912-600-864-195 48 0 1020-146 1052-230 48-333-941-531-908s-80 1017-229 1038c-234 30-258-965-458-947-200 17-160 1007-309 1016-235 12-182-982-382-980s-238 992-388 989c-235-7-104-993-304-1007s-315 970-464 955c-234-25-26-998-224-1028s-390 942-538 916c-231-43 53-997-143-1042-195-45-463 909-608 871-227-61 131-990-60-1050s-533 869-675 821c-222-79 208-977 22-1052s-599 825-737 765c-215-96 284-957 105-1047s-662 775-795 705c-207-113 358-932 187-1035-172-103-721 721-848 640-197-129 430-901 267-1018s-776 662-895 572c-187-144 500-865 346-993-153-129-825 599-937 500-175-158 566-823 423-963-143-141-870 533-974 425-162-171 629-776 497-927-131-151-909 463-1004 347-148-183 688-724 569-885s-942 390-1028 267c-133-194 742-668 636-838s-970 315-1046 186c-117-204 792-608 700-785-92-178-992 238-1057 103-101-213 838-543 759-728-78-185-1007 159-1062 20-84-220 878-476 814-666-63-190-1017 80-1060-63-66-226 912-406 864-600-48-195-1020 0-1052-146-48-230 941-333 908-531s-1017-80-1038-229c-30-234 965-258 947-458-17-200-1007-160-1016-309-12-235 982-182 980-382s-992-238-989-388c7-235 993-104 1007-304s-970-315-955-464c25-234 998-26 1028-224s-942-390-916-538c43-231 997 53 1042-143 45-195-909-463-871-608 61-227 990 131 1050-60s-869-533-821-675c79-222 977 208 1052 22s-825-599-765-737c96-215 957 284 1047 105s-775-662-705-795c113-207 932 358 1035 187 103-172-721-721-640-848 129-197 901 430 1018 267s-662-776-572-895c144-187 865 500 993 346 129-153-599-825-500-937 158-175 823 566 963 423 141-143-533-870-425-974 171-162 776 629 927 497 151-131-463-909-347-1004 183-148 724 688 885 569s-390-942-267-1028c194-133 668 742 838 636s-315-970-186-1046c204-117 608 792 785 700 178-92-238-992-103-1057 213-101 543 838 728 759 185-78-159-1007-20-1062 220-84 476 878 666 814 190-63-80-1017 63-1060 226-66 406 912 600 864 195-48 0-1020 146-1052 230-48 333 941 531 908s80-1017 229-1038c234-30 258 965 458 947 200-17 160-1007 309-1016 235-12 182 982 382 980s238-992 388-989c235 7 104 993 304 1007s315-970 464-955c234 25 26 998 224 1028s390-942 538-916c231 43-53 997 143 1042 195 45 463-909 608-871 227 61-131 990 60 1050s533-869 675-821c222 79-208 977-22 1052s599-825 737-765c215 96-284 957-105 1047s662-775 795-705c207 113-358 932-187 1035 172 103 721-721 848-640 197 129-430 901-267 1018s776-662 895-572c187 144-500 865-346 993 153 129 825-599 937-500 175 158-566 823-423 963 143 141 870-533 974-425 162 171-629 776-497 927 131 151 909-463 1004-347z" class="fil1"/><path d="M19650 14031c-85 220-971-234-1051-50s809 621 746 757c-102 212-950-309-1044-132s758 682 684 813c-118 204-922-383-1030-214s702 740 618 864c-134 194-889-454-1010-294s642 793 548 910c-149 183-851-522-984-372s578 840 475 950c-162 170-808-587-952-448s510 883 399 985c-175 157-759-649-914-521-155 127 439 920 321 1013-187 143-706-706-870-592-164 115 365 952 240 1035-198 128-648-760-821-658s290 978 158 1051c-207 112-587-808-767-720s212 998 75 1060c-215 95-521-852-708-778-187 73 133 1011-8 1062-222 78-453-890-645-831-192 58 53 1018-91 1058-228 60-382-923-577-879-196 43-27 1019-174 1048-232 42-308-950-507-922s-107 1014-256 1031c-234 24-233-971-433-959s-186 1003-336 1008c-235 6-156-986-356-990s-264 985-414 978c-235-13-78-995-277-1015-200-19-341 961-489 943-233-31 0-999-197-1033-197-35-415 932-562 902-230-49 79-995-115-1046-194-50-487 896-631 855-226-67 157-986-33-1052-189-65-556 855-696 803-220-85 234-971 50-1051s-621 809-757 746c-212-102 309-950 132-1044s-682 758-813 684c-204-118 383-922 214-1030s-740 702-864 618c-194-134 454-889 294-1010s-793 642-910 548c-183-149 522-851 372-984s-840 578-950 475c-170-162 587-808 448-952s-883 510-985 399c-157-175 649-759 521-914-127-155-920 439-1013 321-143-187 706-706 592-870-115-164-952 365-1035 240-128-198 760-648 658-821s-978 290-1051 158c-112-207 808-587 720-767s-998 212-1060 75c-95-215 852-521 778-708-73-187-1011 133-1062-8-78-222 890-453 831-645-58-192-1018 53-1058-91-60-228 923-382 879-577-43-196-1019-27-1048-174-42-232 950-308 922-507s-1014-107-1031-256c-24-234 971-233 959-433s-1003-186-1008-336c-6-235 986-156 990-356s-985-264-978-414c13-235 995-78 1015-277 19-200-961-341-943-489 31-233 999 0 1033-197 35-197-932-415-902-562 49-230 995 79 1046-115 50-194-896-487-855-631 67-226 986 157 1052-33 65-189-855-556-803-696 85-220 971 234 1051 50s-809-621-746-757c102-212 950 309 1044 132s-758-682-684-813c118-204 922 383 1030 214s-702-740-618-864c134-194 889 454 1010 294s-642-793-548-910c149-183 851 522 984 372s-578-840-475-950c162-170 808 587 952 448s-510-883-399-985c175-157 759 649 914 521 155-127-439-920-321-1013 187-143 706 706 870 592 164-115-365-952-240-1035 198-128 648 760 821 658s-290-978-158-1051c207-112 587 808 767 720s-212-998-75-1060c215-95 521 852 708 778 187-73-133-1011 8-1062 222-78 453 890 645 831 192-58-53-1018 91-1058 228-60 382 923 577 879 196-43 27-1019 174-1048 232-42 308 950 507 922s107-1014 256-1031c234-24 233 971 433 959s186-1003 336-1008c235-6 156 986 356 990s264-985 414-978c235 13 78 995 277 1015 200 19 341-961 489-943 233 31 0 999 197 1033 197 35 415-932 562-902 230 49-79 995 115 1046 194 50 487-896 631-855 226 67-157 986 33 1052 189 65 556-855 696-803 220 85-234 971-50 1051s621-809 757-746c212 102-309 950-132 1044s682-758 813-684c204 118-383 922-214 1030s740-702 864-618c194 134-454 889-294 1010s793-642 910-548c183 149-522 851-372 984s840-578 950-475c170 162-587 808-448 952s883-510 985-399c157 175-649 759-521 914 127 155 920-439 1013-321 143 187-706 706-592 870 115 164 952-365 1035-240 128 198-760 648-658 821s978-290 1051-158c112 207-808 587-720 767s998-212 1060-75c95 215-852 521-778 708 73 187 1011-133 1062 8 78 222-890 453-831 645 58 192 1018-53 1058 91 60 228-923 382-879 577 43 196 1019 27 1048 174 42 232-950 308-922 507s1014 107 1031 256c24 234-971 233-959 433s1003 186 1008 336c6 235-986 156-990 356s985 264 978 414c-13 235-995 78-1015 277-19 200 961 341 943 489-31 233-999 0-1033 197-35 197 932 415 902 562-49 230-995-79-1046 115-50 194 896 487 855 631-67 226-986-157-1052 33-65 189 855 556 803 696z" class="fil1"/><path d="M9695 1721c200-17 150-244 343-255 192-10 142 157 342 156 200-2 163-219 356-214s167-147 367-133 107 113 299 133 184-133 382-103 136 278 326 312c190 35 247-295 443-250 195 45 96 178 283 228 186 49 224-153 415-92 191 60 267-73 449-9s77 248 263 323 142 40 319 118c176 78 189-67 368 23s122 228 292 319c170 92 43 198 215 301s287-104 449 0c162 105 230-16 393 100 163 117 333-67 486 50s-28 341 126 470c153 129 322-105 466 23M11300 19281c-200 17-150 244-343 255-192 10-142-157-342-156-200 2-163 219-356 214s-167 147-367 133-107-113-299-133-184 133-382 103-136-278-326-312c-190-35-247 295-443 250-195-45-96-178-283-228-186-49-224 153-415 92-191-60-267 73-449 9s-77-248-263-323-142-40-318-118-189 67-368-23-122-228-292-319c-170-92-43-198-215-301s-287 104-449 0c-162-105-230 16-393-100-163-117-333 67-486-50s28-341-126-470c-153-129-322 105-466-23" class="fil1 str1"/><path d="M17700 5413c115 164 174 75 280 236 105 161 163 57 265 230s245 54 337 223-24 191 64 371 138 72 217 248 170 107 243 293c73 187-71 206-6 387 65 182 332 90 391 282 58 192-86 185-36 371s170 132 213 328-20 221 16 411c36 189 149 156 176 355 28 199-72 151-51 343s218 141 230 341-202 209-196 401c5 193-95 129-98 330-4 200 179 203 169 396-10 192 225 218 206 418s-124 213-149 404 128 167 93 364 68 221 28 410M3294 15589c-115-164-174-75-280-236-105-161-163-57-265-230s-245-54-337-223 24-191-64-371-138-72-217-248-170-107-243-293c-73-187 71-206 6-387-65-182-332-90-391-282-58-192 86-185 36-371s-170-132-213-328 20-221-16-411c-36-189-149-156-176-355-28-199 72-151 51-343s-218-141-230-341 202-209 196-401c-5-193 95-129 98-330 4-200-179-203-169-396 10-192-225-218-206-418s124-213 149-404-128-167-93-364-68-221-28-410" class="fil1 str2"/><path d="M18599 13981c-85 182 130 253 43 425s-334-22-433 152 72 199-29 364c-100 165 97 257-15 423s-197 27-310 183 198 358 73 515-266 52-391 198c-125 147 7 209-130 356-137 146-22 192-158 329s-227-25-375 110-3 366-150 491c-146 125-159-9-318 115-158 123-200 55-356 168-156 114 45 328-122 439s-287-59-451 42-44 156-220 253c-175 97-255 2-426 90-172 88-41 331-223 414s-283-28-460 46c-178 74-75 225-263 293s-103 314-286 374M2395 7021c85-182-130-253-43-425s334 22 433-152-72-199 29-364c100-165-97-257 15-423s197-27 310-183-198-358-73-515 266-52 391-198c125-147-7-209 130-356 137-146 22-192 158-329s227 25 375-110 3-366 150-491c146-125 159 9 318-115 158-123 200-55 356-168 156-114-45-328 122-439s287 59 451-42 44-156 220-253c175-97 255-2 426-90 172-88 41-331 223-414s283 28 460-46c178-74 75-225 263-293s103-314 286-374" class="fil1 str3"/><path d="M9685 1869c200-17 141-142 334-152 192-10 161 101 361 99s144-285 337-280 145 61 345 76c200 14 122 150 314 169 192 20 162-220 360-191 198 30 166 189 356 224s195-203 391-158c195 45 58 281 244 331 186 49 225-316 416-256s162 205 344 269 134 151 319 227c186 75 259-247 435-169s170-52 349 38 60 353 230 444c170 92-1 240 171 343s381-262 543-157 51 204 214 320c163 117 446-222 599-105s-228 560-75 689 359-165 502-37M11310 19134c-200 17-141 142-334 152-192 10-161-101-361-99s-144 285-337 280-145-61-345-76c-200-14-122-150-314-169-192-20-162 220-360 191-198-30-166-189-356-224s-195 203-391 158c-195-45-58-281-244-331-186-49-225 316-416 256s-162-205-344-269-134-151-319-227c-186-75-259 247-435 169s-170 52-349-38-60-353-230-444c-170-92 1-240-171-343s-381 262-543 157-51-204-214-320c-163-117-446 222-599 105s228-560 75-689-359 165-502 37M17567 5478c115 164 141 92 247 253 105 161 154 67 256 240s-8 176 85 345c92 169 145 86 232 267 88 180-3 152 76 328s238 57 312 243c73 187 168 108 232 289 65 182 244 90 302 282s-212 212-162 398-26 135 17 330c43 196 155 193 191 382s-124 201-96 399c28 199 230 87 251 278 21 192 159 140 171 340s13 181 19 374c5 193-198 150-202 351-4 200-116 178-126 370s157 148 137 348c-19 200 148 196 123 387s-165 192-200 389 88 181 48 370M3427 15524c-115-164-142-92-247-253s-154-67-256-240 8-176-85-345c-92-169-145-86-232-267-88-180 3-152-76-328s-238-57-312-243c-73-187-168-108-232-289-65-182-244-90-302-282s212-212 162-398 26-135-17-330c-43-196-155-193-191-382s124-201 96-399c-28-199-230-87-251-278-21-192-159-140-171-340s-13-181-19-374c-5-193 198-150 202-351 4-200 116-178 126-370s-157-148-137-348c19-200-148-196-123-387s165-192 200-389-88-181-48-370M18455 13908c-85 182 129 229 41 400-87 172-272 51-370 225-99 174 37 178-64 343-100 165-124 65-237 232-112 166-4 145-117 302-113 156-32 171-157 328s3 255-122 402 25 190-112 336-297-68-433 68c-136 137-15 176-163 312-148 135-90 235-236 360s-229-24-387 99-30 187-186 301-160-26-327 85-190 66-354 167-80 150-256 247c-175 97-122 169-293 257-172 88-179-13-361 70s-98 261-276 335-106 212-295 280c-188 68-123 272-306 332M2539 7095c85-182-129-229-41-400 87-172 272-51 370-225 99-174-37-178 64-343 100-165 124-65 237-232 112-166 4-145 117-301s32-171 157-328-3-255 122-402-25-190 112-336c137-147 297 68 433-68 136-137 15-176 163-312 148-135 90-235 236-360s229 24 387-99 30-187 186-301 160 26 327-85 190-66 354-167 80-150 256-247c175-97 122-169 293-257 172-88 179 13 361-70s98-261 276-335 106-212 295-280c188-68 123-272 306-332" class="fil1 str4"/></g></svg>