<svg xmlns="http://www.w3.org/2000/svg" width="642" height="642" fill-rule="evenodd" clip-rule="evenodd" image-rendering="optimizeQuality" shape-rendering="geometricPrecision" text-rendering="geometricPrecision" viewBox="0 0 16988 16988"><g fill-rule="nonzero"><path fill="#f0bb3e" d="M0 8494a8494 8494 0 1 1 16988 0A8494 8494 0 0 1 0 8494z"/><path fill="#fcc84e" d="M1285 8494a7209 7209 0 1 1 14418 0 7209 7209 0 0 1-14418 0z"/><path fill="#fefefe" d="M10820 10010c38-614-278-1065-595-1333-192-182-614-384-835-470-106-48-259-106-460-182V6126c403 86 691 345 854 758l931-537c-336-758-931-1199-1784-1314v-854h-624v844c-528 48-978 240-1333 576s-537 767-537 1305c0 585 201 1026 595 1333 412 307 700 432 1276 652v1995c-595-67-1007-374-1228-940l-950 547c336 883 1113 1410 2178 1477v844h624v-854c1122-144 1890-863 1890-1947zM7539 6902c0-422 297-719 767-796v1669c-547-259-767-480-767-873zm1391 2226c537 240 787 470 787 892s-278 748-787 854V9128z"/></g></svg>