<svg xmlns="http://www.w3.org/2000/svg" width="642" height="642" fill-rule="evenodd" clip-rule="evenodd" image-rendering="optimizeQuality" shape-rendering="geometricPrecision" text-rendering="geometricPrecision" viewBox="0 0 16988 16988"><defs><style>.fil3{fill:#fefefe}</style></defs><g id="Слой_x0020_1"><path fill="#f0bb3e" fill-rule="nonzero" d="M0 8494a8494 8494 0 1 1 16988 0A8494 8494 0 0 1 0 8494z"/><path fill="#fcc84e" fill-rule="nonzero" d="M1285 8494a7209 7209 0 1 1 14418 0 7209 7209 0 0 1-14418 0z"/><path fill="#fefefe" fill-rule="nonzero" d="M8806 11976c614 0 1180-144 1688-432 518-297 921-691 1199-1180l-959-547c-345 662-1084 1084-1928 1084-719 0-1295-230-1746-681-441-451-662-1026-662-1727 0-700 221-1276 662-1727 451-451 1026-681 1746-681 844 0 1573 422 1928 1084l959-556c-576-988-1669-1602-2887-1602-1007 0-1851 336-2513 1007-662 662-998 1487-998 2475s336 1813 998 2485c662 662 1506 998 2513 998z"/><g id="_1691604185904"><path d="M4598 7272h4763v952H4598zM4598 8764h4763v952H4598z" class="fil3"/></g></g></svg>