<svg xmlns="http://www.w3.org/2000/svg" width="192" height="192" fill-rule="evenodd" clip-rule="evenodd" image-rendering="optimizeQuality" shape-rendering="geometricPrecision" text-rendering="geometricPrecision" viewBox="0 0 5080 5080"><defs><style>.fil1{fill:#000}</style></defs><g id="Слой_x0020_1"><circle cx="2540" cy="2108" r="1530" fill="#ffea00"/><g id="_2817289487216"><path d="M3388 1894h-195c-12-38-27-74-45-110l138-138a91 91 0 0 0 0-130l-162-162a91 91 0 0 0-129 0l-138 138c-35-18-72-33-110-45v-195c0-50-41-91-91-91h-230c-50 0-91 41-91 91v195c-38 12-74 27-110 45l-138-138a91 91 0 0 0-129 0l-162 162a91 91 0 0 0 0 130l138 138c-18 35-33 72-45 110h-195c-50 0-91 41-91 91v230c0 50 41 91 91 91h195c12 38 27 74 45 110l-138 138a91 91 0 0 0 0 129l162 162c36 36 94 36 129 0l138-138c35 18 72 33 110 45v195c0 50 41 91 91 91h230c50 0 91-41 91-91v-195c38-12 74-27 110-45l138 138c36 36 94 36 129 0l162-162a91 91 0 0 0 0-130l-138-138c18-35 33-72 45-110h195c50 0 91-41 91-91v-230c0-50-41-91-91-91zm-38 283h-207c-30 0-56 21-63 50-14 59-37 114-69 166a65 65 0 0 0 9 80l146 146-109 109-146-146a65 65 0 0 0-80-9c-51 32-107 55-166 69-29 7-50 33-50 63v207h-155v-207c0-30-21-56-50-63-59-14-114-37-166-69a65 65 0 0 0-80 9l-146 146-109-109 146-146c21-21 25-54 9-80-32-51-55-107-69-166-7-29-33-50-63-50h-207v-155h207c30 0 56-21 63-50 14-59 37-114 69-166 16-25 12-58-9-80l-146-146 109-109 146 146c21 21 54 25 80 9 51-32 107-55 166-69 29-7 50-33 50-63v-207h155v207c0 30 21 56 50 63 59 14 114 37 166 69 25 16 58 12 80-9l146-146 109 109-146 146a65 65 0 0 0-9 80c32 51 55 107 69 166 7 29 33 50 63 50h207v155z" class="fil1"/><path d="M2540 1755a346 346 0 0 0 0 690 346 346 0 0 0 0-690zm0 561a216 216 0 1 1 1-433 216 216 0 0 1-1 433zM1059 2036H845c-36 0-64 29-64 64 0 36 29 64 64 64h214c36 0 64-29 64-64 0-36-29-64-64-64zM4235 2036h-214c-36 0-64 29-64 64 0 36 29 64 64 64h214c36 0 64-29 64-64 0-36-29-64-64-64zM1538 3102a65 65 0 0 0-91 0l-151 151a65 65 0 0 0 0 91c25 25 66 25 91 0l151-151c25-25 25-66 0-91zM3784 856a65 65 0 0 0-91 0l-151 151a65 65 0 0 0 0 91c25 25 66 25 91 0l151-151c25-25 25-66 0-91zM2540 341c-36 0-64 29-64 64v214c0 36 29 64 64 64 36 0 64-29 64-64V405c0-36-29-64-64-64zM3784 3253l-151-151a65 65 0 0 0-91 0 65 65 0 0 0 0 91l151 151c25 25 66 25 91 0s25-66 0-91zM1538 1007l-151-151a65 65 0 0 0-91 0 65 65 0 0 0 0 91l151 151c25 25 66 25 91 0s25-66 0-91zM3825 1942A1295 1295 0 0 0 2698 809c-35-4-67 21-72 56-4 35 21 67 56 72 535 65 952 484 1015 1020 4 33 32 57 64 57h8c35-4 61-36 57-71z" class="fil1"/><path d="M3768 2187c-35-5-68 21-72 56-44 347-240 653-537 840a434 434 0 0 0-205 369v265h-828v-271c0-146-76-283-199-359a1160 1160 0 0 1-553-992c0-587 440-1084 1023-1157 35-4 60-37 56-72s-37-60-72-56a1301 1301 0 0 0-1136 1285 1289 1289 0 0 0 614 1102c85 52 137 148 137 249v280c-66 23-113 85-113 158v92c0 39 13 75 36 103-22 28-36 64-36 103v92c0 92 75 168 168 168h203v146c0 84 68 152 152 152h266c84 0 152-68 152-152v-146h203c92 0 168-75 168-168v-92c0-39-13-75-36-103 22-28 36-64 36-103v-92c0-73-47-135-113-158v-275c0-106 54-203 145-260 330-207 548-547 597-933 5-35-20-68-56-72zM2697 4587c0 13-11 24-24 24h-266c-13 0-24-11-24-24v-146h313v146zm370-313c0 21-18 39-39 39h-976c-21 0-39-18-39-39v-92c0-21 18-39 39-39h976c21 0 39 18 39 39v92zm0-298c0 21-18 39-39 39h-976c-21 0-39-18-39-39v-92c0-21 18-39 39-39h976c21 0 39 18 39 39v92z" class="fil1"/></g></g></svg>