<svg xmlns="http://www.w3.org/2000/svg" width="192" height="192" fill-rule="evenodd" clip-rule="evenodd" image-rendering="optimizeQuality" shape-rendering="geometricPrecision" text-rendering="geometricPrecision" viewBox="0 0 5080 5080"><defs><style>.fil1{fill:#000}</style></defs><g id="Слой_x0020_1"><circle cx="3200" cy="1880" r="1637" fill="#ffea00"/><g id="_2817288926624"><path d="M4153 1127a62 62 0 0 0-88-10 62 62 0 0 0-10 88 1074 1074 0 0 1-179 1511v-503c0-78-46-148-117-180l-316-140c-2-1-3-2-3-4v-129c62-60 100-144 100-237v-67a331 331 0 0 0-662 0v67c0 93 39 177 100 237v129c0 2-1 3-3 4l-316 140a197 197 0 0 0-117 180v502a63 63 0 0 0-88 10 63 63 0 0 0 10 88 1197 1197 0 0 0 1592-94 1200 1200 0 0 0 94-1592zm-1148 329a205 205 0 0 1 410 0v67a205 205 0 0 1-410 0v-67zm355 531l-149 125-149-125c28-24 45-60 45-98v-52a330 330 0 0 0 210 0v52c0 38 17 74 45 98zm391 814c-46 27-94 50-143 69v-477c0-35-28-63-63-63s-63 28-63 63v518c-178 46-366 47-544 0v-517c0-35-28-63-63-63s-63 28-63 63v476c-49-19-96-43-143-69v-588c0-28 17-54 42-65l226-100 232 193a60 60 0 0 0 80 0l232-193 226 100c26 11 42 37 42 65v588z" class="fil1"/><path d="M3953 927a1199 1199 0 0 0-1686 1686 63 63 0 0 0 88 11c27-21 32-61 10-88a1074 1074 0 0 1 1510-1510c27 21 67 17 88-10s17-67-10-88z" class="fil1"/><path d="M3210 401a1471 1471 0 0 0-1082 2462l-224 224-50-50a197 197 0 0 0-278 0L499 4114a329 329 0 0 0 0 468 329 329 0 0 0 468 0l1077-1077a197 197 0 0 0 0-278l-50-50 224-224a1471 1471 0 0 0 2462-1082c0-810-659-1469-1469-1469zM877 4493c-39 39-90 60-145 60s-106-21-145-60-60-90-60-145 21-106 60-145l927-927 290 290-927 927zm1077-1077l-62 62-290-290 62-62c13-13 31-21 50-21s37 7 50 21l189 189c13 13 21 31 21 50s-7 37-21 50zm1256-202c-741 0-1344-603-1344-1344S2469 526 3210 526s1344 603 1344 1344-603 1344-1344 1344z" class="fil1"/></g></g></svg>