<svg xmlns="http://www.w3.org/2000/svg" width="874" height="488" fill-rule="evenodd" clip-rule="evenodd" image-rendering="optimizeQuality" shape-rendering="geometricPrecision" text-rendering="geometricPrecision" viewBox="0 0 23124 12912"><defs><style>.fil33{fill:none;fill-rule:nonzero}.fil20,.fil44,.fil45{fill:#000;fill-rule:nonzero}.fil20{fill:#363a47}.fil10,.fil12,.fil36{fill:#383e4f;fill-rule:nonzero}.fil12,.fil36{fill:#5a74b7}.fil36{fill:#5c5ca4}.fil13,.fil16,.fil29{fill:#707f9d;fill-rule:nonzero}.fil13,.fil29{fill:#c7d6ee}.fil29{fill:#cc5427}.fil22,.fil23,.fil35{fill:#d37b54;fill-rule:nonzero}.fil22,.fil35{fill:#d54e3a}.fil35{fill:#de402f}.fil19,.fil40,.fil7{fill:#e0e5f0;fill-rule:nonzero}.fil19,.fil40{fill:#e3a177}.fil40{fill:#e4b13e}.fil17,.fil18,.fil24{fill:#e5c998;fill-rule:nonzero}.fil17,.fil18{fill:#e7ddcf}.fil17{fill:#e7e7e6}.fil11,.fil2,.fil37{fill:#ea5843;fill-rule:nonzero}.fil11,.fil37{fill:#ec8e60}.fil37{fill:#eda410}.fil1,.fil15,.fil9{fill:#f08632;fill-rule:nonzero}.fil1,.fil9{fill:#f6b28a}.fil1{fill:#fcc84e}</style><clipPath id="id0" clip-rule="nonzero"><path d="M13333 3535l-6-4c-38-162-183-325-357-325-171 0-314 159-355 317-10 0-21 3-30 11a126 126 0 0 0 0 192c12 10 26 13 39 10 33 98 137 254 292 266 1 61-9 98-27 125l-75 120c-32 55-14 125 40 158a116 116 0 0 0 158-40l72-115c56-89 66-196 61-286 81-43 140-141 171-230 6-2 11-4 16-9a126 126 0 0 0 0-192l1 2z"/></clipPath></defs><g id="Слой_x0020_1"><g id="_1691751241968"><path fill="#ffea00" d="M0 0h23124v12912H0V0zm13128 4427a10133 10133 0 0 0-4425 0c-84 19-169-32-189-115l-459-1911c-20-83 47-171 151-194 1784-399 3634-399 5418 0 104 23 171 111 151 194l-459 1911a158 158 0 0 1-189 115h1z"/><path d="M6441 5710a1041 1041 0 0 1 745-1401l111 506a522 522 0 0 0-374 703l-482 192z" class="fil1"/><path d="M8095 6130a1031 1031 0 0 1-877 295c-217-30-428-128-595-295l-24-25 378-354a522 522 0 1 0 612-825l229-465a1041 1041 0 0 1 276 1668l1 1z" class="fil2"/><path fill="#f0862a" fill-rule="nonzero" d="M7819 4462l-229 465a513 513 0 0 0-342-42l-111-506a969 969 0 0 1 223-24 1048 1048 0 0 1 460 107h-1z"/><path fill="#dde0f1" fill-rule="nonzero" d="M6599 6202c-91-97-161-208-207-325l482-192c24 61 60 116 104 163l-378 354h-1z"/><path fill="#e9eff7" fill-rule="nonzero" d="M8824 3472l118 610-36 7-120-609 38-7v-1z"/><path fill="#dee3f3" fill-rule="nonzero" d="M12961 3717l-7 35c12 4 24 7 37 9l5-24 2-10-37-10z"/><path d="M8424 2435c5 28-14 55-43 60s-56-12-62-40c-5-28 14-55 43-60 29-6 57 13 62 40zM8620 2400c5 28-15 54-43 59-29 5-56-13-61-41s14-55 43-60 56 13 61 41v1zM8816 2368c4 28-16 54-44 59-29 5-56-14-60-42-5-28 15-54 44-59s56 14 60 42z" class="fil1"/><path d="M8659 8612l20-296 136 15-50 301z" class="fil7"/><path fill="#d64232" fill-rule="nonzero" d="M8776 8561c9 1 17 4 24 10 47 39 104 83 146 98 70 27 111 70 2 70-110 0-143-3-176-4-49-1-27 4-149 4-60 0-32-113 1-167 10-17 13-30 33-28l119 17z"/><path d="M9013 8612l62-288 137 14-93 294z" class="fil7"/><path d="M9138 8561c9 1 17 4 24 10 47 39 188 108 261 118 78 11 82 50-28 50s-190-10-239-9-67 9-188 9c-92 0-32-118 1-172 10-17 30-26 50-23l119 17z" class="fil2"/><path d="M10440 3405c-35 27-73 49-106 67-22 3-45 13-65 26-24 16-142 99-174 205l-48 99-11 21-10 19-49 90a842 842 0 0 1-144 211c-95 48-382 16-556-23a98 98 0 0 0-116 74 97 97 0 0 0 74 116c53 12 246 52 427 52 97 0 192-12 259-46 70-35 137-179 187-311l31-84 20-56 1-4 25-73c12-34 20-48 31-74s117-26 161-55c45-30 40-107 22-157-1-4-3-6-5-9l25-16c62-41 114-145 21-74v2z" class="fil9"/><path d="M9319 3613c0-203-151-365-353-365a367 367 0 0 0-367 367c0 141 75 296 191 358-5 90 5 189 61 278l72 115a116 116 0 0 0 158 40c55-33 73-103 40-158l-75-120c-16-26-27-54-26-118 234 44 299-214 299-397z" class="fil9"/><path d="M8691 6280s-100-253-36-604h821s22 247 3 515l-789 90 1-1z" class="fil10"/><path d="M8835 5986h-3c-89 0-196 0-164 197 1 8 38 799 11 1131-25 314-48 1183-48 1192h183c1-9 168-855 193-1166 27-343 50-1120 50-1152 2-91-131-200-221-202h-1z" class="fil10"/><path d="M9480 6154c-6-90-95-139-185-132-90 6-272 78-266 168 0 7 161 693 167 1002 5 274-16 503-200 1317l179 12c40-108 356-950 349-1335-6-317-41-1003-43-1032h-1z" class="fil10"/><path d="M8717 4219l-159 756c-10 45-42 79-86 87-9 2-18 4-29 4-39 0-78-59-195-233l-11-17-44-65-12-18-92-132c-34 12-134 67-174 67-54 0-120-5-99-55 23-53 75-88 126-103 27-8 77-22 97-33l5-2 9-4 9-3 9-2 10-1h9l10 1 8 1 10 2 8 3 9 4 8 5 8 6 7 6 7 7 3 4c38 52 79 107 120 159l14 17 49 61 13 16 33 38 20-98 3-14 106-504 191 40z" class="fil9"/><path d="M8363 4757l-115 76-11-17-44-65-12-18 106-70 14 17 49 61 13 16z" class="fil11"/><path d="M10003 3850c-118 226-171 273-179 279-88 42-297 24-464-10-41-12-75-20-89-20h-680c-39 0-70 27-79 63l-125 595-39-47-179 144c137 168 207 227 278 227h1c11 0 22-1 32-4a130 130 0 0 0 96-100l28-134c37 317 95 381 52 832h821s-31-838-89-1286c81 12 197 16 301 6 100-10 172-27 242-62 33-17 74-36 243-361l-170-122h-1z" class="fil12"/><path d="M8347 4712l-179 144-29-36 179-143 29 35z" class="fil13"/><path d="M10161 3863l-1 4-20 56-113-81 10-19 11-21 114 61h-1z" class="fil11"/><path d="M10192 3936l-19 37-170-122 19-37 170 123v-1z" class="fil13"/><path fill="#506fb4" fill-rule="nonzero" d="M8603 4845l-29 134c-8 37-30 67-60 85l41-576c16 110 32 232 47 357h1z"/><path d="M9332 3191s-6 56-136-2c-243-110-490-51-558 0-66 50-75 103-55 145-54 48-89 115-89 163-1 209 131 421 274 421 228 0 329-278 316-439l-4-43 22 4c268 51 229-249 229-249h1z" class="fil15"/><path d="M8959 3631c0 38 17 73 45 96 32 27 81 3 81-39v-113c0-42-49-66-81-39-27 23-45 57-45 96v-1z" class="fil9"/><path d="M9140 8492l-17-5c3-9 256-824 287-954 21-90 56-262 50-394-4-112-65-1011-66-1020 12-109 18-461 18-465h18c0 4-6 357-18 465 1 8 62 907 66 1019 5 134-30 307-51 399-31 131-284 947-287 956v-1zM8627 5767h275v-18h-275z" class="fil16"/><path d="M8604 4853v-8h-1v8z" class="fil17"/><path d="M8609 4892l3 22-3-22zm-32 77l1-6-1 6z" class="fil18"/><path d="M9032 4100c-7-19-12-42-12-77v-14c-1 43 4 70 12 90v1zm-12-90zm-230-37v3-3zm0 0zm0 0z" class="fil17"/><path d="M9032 4100h-236v-20l-1-8v-8l-1-6v-65l1-17v-3l-1-1-1-1-1-1-1-1-1-1-1-1-1-1-1-1-1-1-1-1-1-1-1-1-1-1-3-2-1-1-1-1-1-1-1-1-1-1-1-1-1-1-1-1-1-1-1-1-1-1-1-1-1-1-1-1-1-1-1-1-1-1-1-1-1-1-1-1-1-1h-1l-1-1h-1l-1-1h-1l-3-2-1-1-1-1-20-20v-1l-7-8c21 9 42 14 64 14 79 0 143-33 192-84 21 58 41 117 60 176v14c0 35 5 58 12 77l-17 1zm-242-128z" class="fil19"/><path d="M8670 6213c-8-29-16-67-23-113l-1-6-1-6-1-6-1-6-1-7-1-7-1-7-1-7-1-7-1-7-1-7-1-7-1-7-1-7-1-7v-156l1-9 1-9 1-9 1-9 1-9 1-9 1-9 1-9h260v-18h-258l11-73h537c-16 127-40 252-72 373l-9 33c-27 16-50 35-65 55-34-77-136-151-210-152h-3c-89 0-196 0-164 197l2 30 1-3zm-28-445z" class="fil20"/><path d="M8689 6881v-298l-1-49v-323l-2-30c-32-197 75-197 164-197h3c74 1 177 75 210 152a79 79 0 0 0-17 52l19 87c-93 251-216 450-359 605l-17 1z" class="fil20"/><path d="M9048 6277l-19-87c-1-18 5-36 17-52 15-20 38-39 65-55-19 68-40 133-63 194z" class="fil20"/><path fill="#5069af" fill-rule="nonzero" d="M9192 5676h-537l2-18v-7l1-15v-1l1-10v-3l1-11v-2l1-12v-4l1-15v-1l1-15v-2l1-13 1-11v-5l1-10v-29l1-13v-41-81l-2-50v-12l-8-83v-1l-1-8-1-7v-2c-12-87-29-166-45-277v-1l-3-22v-4l-1-10v-6l-1-10v-6l-1-10c-15-125-31-248-47-357l-41 576c-11 7-23 12-36 15-11 2-22 4-32 4h-29l-3-1h-1l-3-1h-6l-2-1h-1l-2-1h-2l-2-1h-2l-2-1h-2l-3-1h-1l-3-1-3-2-2-1-1-1-2-1-2-1-3-2-2-1-2-1-2-1-2-1-2-1-2-1-2-1-2-1-2-1-2-1-2-1-2-1-2-1-2-1-1-1-2-1h-1l-1-1-2-2h-1l-1-1-2-2-1-1-1-1-2-2-1-1-1-1-2-2-1-1-1-1-3-2-2-1-2-2-2-2-2-2-8-8-4-4-4-4-5-4-2-2-2-2-2-2-2-2-2-2-2-2-2-3-2-2v-1l-2-3-2-2-1-1-3-3-2-2-1-1-3-3-2-2-1-1-3-3-2-2-1-1-3-3-2-2-1-1-3-3-1-2-1-1-3-3-1-2-1-2-3-3-1-1-2-2-3-3-1-1-2-2-3-3-1-1-2-2-3-3-1-1-2-2-3-3-1-1-2-2-3-4-1-1-2-3-3-4-1-1-2-3-3-4-1-1-3-3-3-4-3-3-3-4-3-4-3-4-3-4-3-4 179-144 39 47 125-595c8-35 40-63 79-63h456a3947 3947 0 0 1 144 1575l5-11zm-522-240v-23 23zm-155-372zm-168-352zm227 267zm0 0zm0 0zm0 0zm0 0zm0 0zm0 0zm0 0zm0 0zm0 0zm0 0zm0 0zm0-1zm0-1v-1 1zm0 0v-1 1zm0-1zm0-1v-1 1zm0 0l2-11-1 4-1 6v2-1zm-1 4zm0-1zm1-3zm-1 3z"/><path d="M8588 4917zm0 0zm0 0zm0 0zm0 0zm0-1zm0 0zm0 0zm0 0zm0 0zm0 0zm0 0zm0 0zm0 0zm0 0l1-3-1 3zm1-3zm0 0zm0 0zm0 0zm0 0zm0 0zm0 0zm0 0zm0 0zm0 0zm0 0zm0 0zm0 0zm0 0zm0 0zm0-1zm0 0zm0 0zm0 0zm0 0z" class="fil18"/><path d="M8195 4775l7-5 2-2z" class="fil17"/><path d="M8195 4775l-55 45z" class="fil22"/><path d="M8181 4734l-92-132c-34 12-134 67-174 67h-76l-2-1-2-1-1-1-1-1-1-1h-2l-1-1-1-1-1-1-1-1-1-1-1-1-2-2-2-2-1-1c-3-4-4-8-4-14v-3l1-5v-4c23-53 75-88 126-103 27-8 77-22 97-33l5-2 9-4 9-3 9-2 10-1h9l10 1 8 1 10 2 8 3 9 4 8 5 8 6 7 6 7 7 3 4c38 52 79 107 120 159l-106 70-1-13z" class="fil19"/><path d="M8204 4768l-11-16-12-18 106-70 14 17-101 81 4 6zm-11-16zm-12-18zm106-70zm14 17z" class="fil23"/><path d="M8496 3533zm0 0zm0-4zm0 0zm0 3zm0-3z" class="fil24"/><path d="M8495 3497zm0 0zm0 0zm0 0z" class="fil17"/><path fill="#afbfe3" fill-rule="nonzero" d="M8168 4855l-29-36 55-44 9-7 101-81 13-11 29 35-179 144h1zm-29-36z"/><path fill="#4561aa" fill-rule="nonzero" d="M8515 5064l41-576c16 110 32 232 47 357v37l-1 3v1l-1 6v1l-3 14v2l-1 3v2l-3 13-2 9-1 3v1l-1 3v8l-1 3-2 11v3c-8 37-30 67-60 85l-12 11zm88-219zm-29 133z"/><path fill="#d9742b" fill-rule="nonzero" d="M8769 3917c-22 0-43-5-64-14l-5-2-5-2-3-1-3-2-1-1-4-2-1-1-4-3-1-1-4-2-2-1-3-2-2-1-3-3-1-1-3-3-2-1-4-3-1-1-4-3-1-1-10-9-18-19-1-1-3-4-1-1-3-4-1-2-3-3-2-2-3-4-1-1-8-10-1-1-3-5-1-1-3-5-1-1-4-6v-1l-7-12 198 144-3-1zm-206-157l-1-1-3-5-1-2-2-5-1-2-2-5-1-2-3-5-1-2-2-5-1-2-2-5-1-3-2-4-1-2-1-4-2-4-2-6v-1l-3-7-3-7-2-7v-1l-2-7v-1l-2-6v-1l-1-4-1-3-1-4-1-5-1-2-1-5-1-4-1-3-1-5v-2l-1-6v-1l-1-6-1-5-1-3-1-4-1-4-1-7v-1l-1-7-1-8-1-7v-1l-1-7-1-7v-1l-1-6v-28c0-49 36-115 89-163v-10l-4-15v-41l1-3v-7l1-2 1-2 1-1 1-2v-1l1-1 1-2 2-3 1-2 3-5 1-2 9-13 1-2 1-2 1-2 1-1 1-2 3-3 2-2 1-1 1-1 1-1 2-2 2-2 1-1 2-2 2-2 2-2 2-1 2-2 1-1 1-1 1-1 2-2 2-1 1-1 3-2 1-1 1-1 2-1 1-1c118 194 222 416 309 654-49 50-113 84-192 84l-206-157v-14zm-68-264zm89-163z"/><path fill="#60708a" fill-rule="nonzero" d="M8902 5767h-275v-18h275z"/><path d="M11677 5858h979c32 0 50-26 41-57l-164-581c-9-32-42-57-74-57h-979c-32 0-50 26-41 57l164 581c9 32 42 57 74 57z" class="fil29"/><path d="M11698 5858h979c32 0 50-26 41-57l-164-581c-9-32-42-57-74-57h-979c-32 0-50 26-41 57l164 581c9 32 42 57 74 57z" class="fil15"/><path d="M11635 5869c4 11 15 19 28 19h1034c13 0 24-8 28-19 2-5-2-11-7-11h-1075c-6 0-9 6-7 11h-1z" class="fil29"/><path fill="#fcda98" fill-rule="nonzero" d="M11903 5869c4 11 15 19 28 19h1034c13 0 24-8 28-19 2-5-2-11-7-11h-1075c-6 0-9 6-7 11h-1z"/><path fill="#fef6e8" fill-rule="nonzero" d="M12350 5858v5c0 6 5 10 10 10h176c6 0 10-5 10-10v-5h-196z"/><path fill="#f4b42e" fill-rule="nonzero" d="M13266 5984c-13-90-96-152-186-139-96 14-946 154-1073 706-78 336 151 920 331 1387l156-46c-130-398-209-1085-167-1267 66-284 614-427 801-455 90-13 152-97 138-186z"/><path d="M13333 3535l-6-4c-38-162-183-325-357-325-171 0-314 159-355 317-10 0-21 3-30 11a126 126 0 0 0 0 192c12 10 26 13 39 10 33 98 137 254 292 266 1 61-9 98-27 125l-75 120c-32 55-14 125 40 158a116 116 0 0 0 158-40l72-115c56-89 66-196 61-286 81-43 140-141 171-230 6-2 11-4 16-9a126 126 0 0 0 0-192l1 2z" class="fil9"/><g clip-path="url(#id0)"><g id="_1691751207280"><path id="_1" d="M13140 4101h-236l5-16 7-41v-13-14l-6-1h-2l-6-1h-1l-5-1h-19l-2-1h-10l-2-1h-1l-2-1h-2l-6-2-3-1c0-46 4-93 12-141 50 33 111 54 183 54 249 0 310-222 314-341l6 10 1 1 1 2 1 1 1 1 1 1 1 1v3l1 3v19l1 2v25c0 38-17 73-44 96-5 4-11 7-16 9-31 88-89 187-171 230v130l-1-13zm-223-98zm461-372zm-231 334zm0 11z" class="fil19"/></g></g><path d="M13333 3535l-6-4c-38-162-183-325-357-325-171 0-314 159-355 317-10 0-21 3-30 11a126 126 0 0 0 0 192c12 10 26 13 39 10 33 98 137 254 292 266 1 61-9 98-27 125l-75 120c-32 55-14 125 40 158a116 116 0 0 0 158-40l72-115c56-89 66-196 61-286 81-43 140-141 171-230 6-2 11-4 16-9a126 126 0 0 0 0-192l1 2z" class="fil33"/><path d="M13333 3535l-6-4c-38-162-183-325-357-325-171 0-314 159-355 317-10 0-21 3-30 11a126 126 0 0 0 0 192c12 10 26 13 39 10 33 98 137 254 292 266 1 61-9 98-27 125l-75 120c-32 55-14 125 40 158a116 116 0 0 0 158-40l72-115c56-89 66-196 61-286 81-43 140-141 171-230 6-2 11-4 16-9a126 126 0 0 0 0-192l1 2z" class="fil33"/><path d="M11580 5220h1031c39 0 73 10 76 22l145 541c3 12-25 22-64 22h-1031c-39 0-73-10-76-22l-145-541c-3-12 26-22 64-22z"/><path d="M13245 6211s100-183 36-535h-821s-12 267 7 535h778z" class="fil1"/><path d="M12630 5890l-396-2c-607-5-789-6-876 150-30 54-50 143 26 262 191 299 853 767 924 825l122-153c-158-128-502-523-696-751 121-6 305-5 496-3l399 2c91 0 164-73 164-164s-73-164-164-164l1-2z" class="fil1"/><path d="M13854 4902c0-76-79-228-179-387-81-128-175-261-246-359a97 97 0 0 0-157 115c85 117 175 248 246 361 74 117 129 216 141 259-37 71-253 290-441 459l-8 9-4 5-8 12-2 4-5 14-1 4-2 14-1 5v19l3 12 2 6 5 11 3 6 7 10 3 5 1 1 1 1h1c16 19 81 90 161 117 11 4 21 5 32 5 40 0 60-61 74-102 18-51-53-97-104-115l-4-2c280-216 486-379 486-492l-4 3z" class="fil9"/><path d="M13675 4515l-108 79-51 38c-71-113-160-244-246-361a97 97 0 0 1 157-115c72 98 165 231 246 359h2z" class="fil11"/><path d="M13680 4478l-117 73-100 62-17-27-50-81-92-146-39-61a128 128 0 0 1 85-196c10-2 19-2 29-1 39 2 77 22 99 58 2 4 61 94 134 212l50 81 17 27 1-1z" class="fil2"/><path d="M13563 4551l-100 62-17-27-50-81-92-146-39-61a128 128 0 0 1 85-196c10-2 19-2 29-1 20 19 37 42 47 70 2 6 56 148 120 332l17 49v-1z" class="fil35"/><path d="M13425 4195c-57 327-169 1150-144 1481h-821s9-221 25-498c22-368 56-834 100-1010l2-7c9-36 42-60 78-60h680c50 0 89 45 80 95v-1z" class="fil2"/><path d="M13167 3301c-78 100-537 162-537-63 0-48 32-71 32-71s4 34 21 44c0 0 79-45 157-62 0 0-15 34 43 27 168-22 413-41 284 126v-1z" class="fil36"/><path d="M12792 4333l-12 81-27 195-14 108-253 461c22-368 56-834 100-1010a109 109 0 0 1 100-17c47 14 84 56 100 105 8 25 11 51 6 77z" class="fil35"/><path d="M12847 3232c-84 22-156 169-164 256-14 160 107 411 356 411 298 0 326-317 312-397s-63-258-191-274c-77-10-223-20-313 4z" class="fil36"/><path d="M12719 4141h-1c-9-5-19-8-29-11-23-5-46-4-66 3-21 7-40 18-55 35l-1 1c-4 7-7 16-8 24-4 16-44 201-87 409-45 214-93 450-108 546-29 200-342 361-460 406l-5 3c-4 2-8 3-11 6l-9 7-5 4-2 2-1 1c-25 23-123 122-111 243 5 50 6 63 54 78 25 7 48 7 74 7 54 0 85-16 79-69-1-14-27-142-4-166 278-118 548-169 595-491 13-86 56-300 98-502 47-225 93-435 94-440 8-36-5-71-30-93l-1-3z" class="fil9"/><path d="M12749 4235c-1 4-47 214-94 440l-184-72c43-207 84-393 87-409l8-24 1-1c15-16 34-28 55-35a123 123 0 0 1 95 8h1c25 23 38 58 30 93h1z" class="fil11"/><path d="M12460 4571l251 50 6-31 19-94 35-169 15-71c5-23 4-45-3-67a126 126 0 0 0-160-83c-42 13-76 48-86 94l-52 245-19 94-6 31v1z" class="fil2"/><path d="M13028 5786h274v-17h-274zM12290 7057c-294-217-644-554-796-768-52-73-65-135-38-186 39-76 165-118 353-118l286 1 325 1c150 0 150-71 150-97v-223h18v223c0 76-56 115-168 115l-325-1-286-1c-179 0-302 40-338 109-23 44-10 101 37 168 151 213 499 548 792 764l-10 14v-1z" class="fil37"/><path d="M12273 7047c-7 5-13 12-17 19a767 767 0 0 1-182 221c-65 44-52 81 47 33 98-48 166-92 211-113 44-20 64-22 172-75 83-41-23-120-77-154a48 48 0 0 0-55 2l-99 67zM12343 7898c-5 7-8 16-8 24-3 60-34 197-106 243-66 42-45 75 56 32 90-38 139-137 172-172 34-35 52-44 132-134 62-68-66-102-129-115-19-4-39 5-50 22l-67 99v1z" class="fil10"/><path d="M12533 7103l-31-66 12 13 11 16 4 8v1l1 2 1 2v1l1 2v16l1 5z" class="fil20"/><path id="_1691751201264" d="M12467 6427zm914-1946l12 19v2l50 81-50-81-15-24 3 3zm-909 1942h-1 1zm17-13l-6 5-4 3-2 1 2-1 4-3 6-5zm5-3l3-2h1l7-5 1-1 2-2 5-3h-1l-20 14 2-1zm21-14l1-1 5-4-7 4 1 1zm14-10h1l4-3h1-1l-5 3zm12-8l5-3 4-3 1-1-5 3-4 3-1 1zm13-8l1-1-1 1zm1-1l7-4-7 4zm7-4h1-1zm6-4h1l-1 1v-1zm8-5zm13-7h1l7-4 4-2 1-1 4-2-17 9zm1 0l7-4-7 4zm20-11l2-1-2 1zm2-1l7-4-7 4zm7-4l6-3-5 3h-1zm9-5l9-4-9 5v-1zm13-6l2-1 2-1 2-1-2 1-4 2zm13-6l1-1-2 1h1zm9-4l1-1-2 1h1zm8-3l7-3 2-1-2 1-8 3h1zm12-5h1l7-3h1l-8 4-1-1zm11-5l8-3h1l2-1-10 4h-1zm23-10l11-4 2-1 7-3 3-1-23 9zm25-10l5-2 1-1 6-2 2-1 8-3 2-1-23 9-1 1zm24-9l3-1 2-1 7-3h1l8-3 4-1 4-2 8-3 4-1 8-3 10-4 2-1 6-2 6-2 2-1 8-2 3-1 5-2 7-2 7-2 4-1 4-1 7-2h1l7-2 5-1 2-1 7-2 2-1 5-2 6-2h1l7-2 3-1 4-1 7-2c-55 15-116 34-176 57l-1 1zm516-598v-2 11-9zm82-66zm-893 822zm0 0zm1-1zm0 0zm0 0zm0 0zm2-1l1-1-1 1zm1-1l1-1-1 1zm1-1l1-1-1 1zm22-16l9-6-9 6zm28-19l3-2-3 2zm63-38h1-1zm67-34h1l7-3-8 4v-1zm286-103h304-304zm-322 121h-1 1zm-42 23l-2 1 2-1zm-84 53l-5 3 5-3zm788-738zm-1-14zm0 0c-2-30-2-64-2-101v104l2-3zm10-372c16-213 44-458 73-673l10-72 2-12 3-23 2-11 2-11c-35 241-72 545-91 802h-1zm91-802l12 20-12-19v-1zm65 105l17 27-17-27zm17 27l30-19 23 36-2-2-1-1-1-1-1-2v-1l-1-1v-10l-30 19-17-18zm-173 670c167-156 335-330 367-392l-2 3-2 3-2 3-2 3-2 4-3 4-3 4-3 4-3 4-3 4-3 4-4 5-12 15-9 10-5 5-5 5-10 11-15 17-1 1-1 1-10 12-6 6-12 13-18 20-6 7-19 20-7 7-13 13-13 14-7 7-7 7-7 7-7 7-7 7-7 7-7 7-7 7-7 7-8 7-8 7-8 7-8 7-8 7-8 7-8 7-8 7-8 7-8 7-8 7-8 7-8 7-8 7 2 9z" class="fil18"/><path d="M12903 4101l1-2 4-12-5 16v-2z" class="fil17"/><path fill="#d1d6de" fill-rule="nonzero" d="M12908 4085l3-15 1-3v-1l1-6v-3l1-13c-1 15-4 29-7 41h1z"/><path d="M13147 3976zm0-1v-2 2zm0-2zm0 0zm0 0v-3 3zm0-3zm0 0zm0 0zm0 0zm0 0zm0 0zm0 0zm0 0zm0 0zm0 0zm0 0zm0 0zm0 0zm0 0zm0 0zm0 0zm0 0zm0 0zm0 0zm0 0zm0 0zm0 0zm0 0zm0 0zm0 0zm0 0zm0 0zm0 0zm0 0zm0 0z" class="fil17"/><path d="M13378 3631zm0 0zm0 0zm0 0z" class="fil24"/><path fill="#d89e27" fill-rule="nonzero" d="M12420 6469l2-9c22-94 53-173 89-242h119c17 0 34-3 49-7h262c-55 15-116 34-176 57h-1l-23 9h-2l-23 9-11 5-2 1-10 4-1 1-2 1-8 4-2 1-2 1-8 3-6 3-2 1-7 3h-1l-9 4-2 1-4 2-4 2-9 5-3 2-6 3-7 4-5 3-4 2-5 3-7 4h-1l-6 3h-1l-7 4-7 4h-1l-6 3h-1l-7 4-5 3-4 3-4 3-7 4-5 3-3 2-10 7-2 1-6 4-2 2-9 6-3 2-5 3-6 5-4 3-2 1-1 1-1 1-1 1h-1-1l-1 1-4 3-1 1-2 1-1 1-1 1-4 3-1 1-1 1-1 1-1 1-1 1-1 1-1 1-4 3-1 1-1 1-1 1-1 1-1 1-4 4-1 1-1 1-1 1-1 1-1 1-5 5-1 1-1 1-1 1-5 5 2-1z"/><path d="M13245 6211h-566c67-21 115-83 115-157 0-49-22-94-56-124 85-83 171-159 241-254h303v1l5 31v53h-267v18h269c28 279-51 424-51 424l7 8zm36-535zm15 110z" class="fil40"/><path d="M12630 6218h-119c63-119 144-207 227-288a165 165 0 0 1-108 288z" class="fil40"/><path id="_1691751200144" d="M13517 4633l-23-36 70-44 97-60 16 24-108 79-51 38-1-1zm143-141zm0 0z" class="fil23"/><path d="M13563 4551l-17-49c-63-179-115-318-120-331-3-22-15-42-32-55l-15-16c39 2 77 22 99 58 2 4 61 94 134 212l50 81 17 27-20 13-97 60h1z" class="fil22"/><path fill="#c63c2b" fill-rule="nonzero" d="M13463 4614l-17-27-50-81v-2l-12-20c16-113 32-212 45-286 1-8 2-16 1-24 5 12 57 152 120 331l17 49-70 44-30 19-4-3zm-89-513l-16 1c14 2 26 7 37 15l-15-16h-6zm5 0z"/><path d="M13281 5676h-303c70-95 123-208 144-366 64-484-223-809-271-1209h494l10 1h1a81 81 0 0 1 69 70c1 8 1 16-1 24-13 74-28 173-45 286l-2 11-2 11-3 23-2 12-10 72c-29 215-57 460-73 673a4004 4004 0 0 0-10 372v23l4-3z" class="fil22"/><path fill="#58549e" fill-rule="nonzero" d="M13040 3900c-72 0-133-21-183-54 11-65 29-133 58-204a710 710 0 0 1 315-385h1l2 1 2 1 2 1 2 2 1 1 2 2 2 2 2 2 1 1 1 1 3 3 3 3 3 3 1 1 2 2 1 2 1 2 2 3 2 2v1l2 3 1 1 2 3 1 1 2 3v1l2 3 3 4 3 4 2 4 1 1 2 3 1 1 1 1 2 3v1l2 4 1 2 1 1 2 3 2 3v1l2 4 2 4 2 4v1l2 4 1 1 1 3 1 2 1 3 1 3v1l1 3 1 2 1 3 1 1 1 4v1l2 4 2 4 2 4v1l1 4v1l1 3 1 2 1 2 1 2 1 2 1 3v1l1 3v1l1 4 1 4 1 4v1l1 4 1 4v1l1 3 1 2 1 2 1 2v2l1 3v1l1 3v1l1 4 1 4 1 3v1l1 3v1l1 2v3l1 3v6l1 3 1 3c2 13 3 33 2 56-5 120-66 341-314 341l2 1z"/><path fill="#d59120" fill-rule="nonzero" d="M13302 5786h-274v-17h274z"/><path d="M12430 8739h872V6202h-872z" class="fil12"/><path d="M13639 8739h872v-601h-872zM11221 8739h873V7691h-873zM10891 8739h-873V7045h873z" class="fil37"/><path d="M10189 5167h476v-147h-476zM10089 6085h52V4803h-52zM10189 5379h291v-147h-291zM10548 5379h399v-147h-399zM10189 5591h189v-147h-189zM10189 6014h203v-147h-203zM10519 6014h485v-147h-485z" class="fil44"/><path d="M6752 2999h873v-147h-873zM6652 4134h51V2852h-51zM6752 3211h999v-147h-999zM6752 3423h658v-147h-658zM6752 3846h125v-147h-125zM6955 3846h301v-147h-301z" class="fil45"/><path fill="#e4b4b0" fill-rule="nonzero" d="M13375 2695l12-12-12 12z"/></g></g></svg>