<svg xmlns="http://www.w3.org/2000/svg" width="50" height="12" fill-rule="evenodd" clip-rule="evenodd" image-rendering="optimizeQuality" shape-rendering="geometricPrecision" text-rendering="geometricPrecision" viewBox="0 0 365 90"><defs><style>.fil1{fill:#212020;fill-rule:nonzero}</style></defs><g id="Слой_x0020_1"><path fill="#ea5838" d="M2 41L41 2a5 5 0 0 1 8 0l39 39a5 5 0 0 1 0 8L49 88a5 5 0 0 1-8 0L2 49a5 5 0 0 1 0-8zm44-21l21 20v17l-3-3-13-13v30H39V41L26 54l-3 3V40l21-20 1-2 1 2z"/><path d="M126 14l-2-1h-2l-2 1-11 29 1 1h2l3-1 2-6h12l2 6 3 1h2c1 0 2 0 1-1l-11-29zm2 19h-10l4-9 1-6v1l1 5 4 9zm11 3c0 6 3 9 9 9 5 0 9-2 10-6 1-1 0-1-1-2h-2c-1-1-1-1-2 1 0 2-2 3-4 3-4 0-5-2-5-5v-6c0-3 1-5 5-5 2 0 4 1 4 3 1 1 1 2 2 1h2c1-1 2-1 1-2-1-4-4-6-9-6-7 0-10 3-10 9v6zm27-20l-2 2v4h-3l-1 1v2l1 1h3v9c0 4 1 7 3 8 1 2 4 2 8 2l1-1v-2l-1-2-4-1-1-4v-9h5l1-1v-2l-1-1h-5v-4l-2-2h-2zm16-3c-2 0-3 1-3 3s1 3 3 3 3-1 3-3-1-3-3-3zm-1 9l-2 1v20l2 1h2l2-1V23l-2-1h-2zm26 0l-3 1-4 11-1 4-2-4-4-11-2-1h-2l-1 1 8 20 2 1h2l1-1 9-20-2-1h-1zm4 14c0 5 3 9 10 9 5 0 8-1 10-4 1-1 0-2-1-2l-1-1h-2c-1 2-3 3-6 3s-5-2-5-5v-1h14l2-2v-3c0-5-4-9-11-9-6 0-10 3-10 9v6zm16-5h-11v-1c0-3 2-5 5-5 4 0 6 2 6 5v1zm11-18c-1 0-2 0-2 2v28l2 1h10c8 0 12-4 12-11v-8c0-8-4-12-12-12h-10zm17 20c0 4-3 6-7 6h-6V18h6c4 0 7 2 7 7v8zm9 3c0 5 4 9 11 9 4 0 7-1 9-4v-2l-2-1h-2c-1 2-3 3-5 3-4 0-5-2-5-5v-1h13l2-2v-3c0-5-4-9-10-9-7 0-11 3-11 9v6zm16-5h-10v-1c0-3 1-5 5-5 3 0 5 2 5 5v1zm9-3l1 5 3 1 5 1c4 1 5 1 5 3s-2 3-5 3c-2 0-4-1-5-3l-2-1-2 1-1 2c2 3 5 5 10 5 7 0 10-3 10-7 0-5-3-7-9-7-4-1-5-1-5-3s1-3 4-3c2 0 4 1 5 3h4v-2c-1-4-4-5-9-5-6 0-9 3-9 7zm25-15c-2 0-3 1-3 3s1 3 3 3 3-1 3-3-1-3-3-3zm-1 9l-2 1v20l2 1h2l1-1V23l-1-1h-2zm8 13c0 6 3 9 9 9l6-1v3c0 3-2 4-5 4-2 0-4 0-5-2h-4v3c1 2 5 4 9 4 7 0 10-4 10-10V25c0-2 0-2-2-3l-8-1c-7 0-10 3-10 9v5zm14-9l1 1v12h-5c-3 0-5-1-5-4v-5c0-3 2-4 5-4h4zm12-4c-1 1-2 1-2 3v18l2 1h2l2-1V27v-1h4c3 0 5 1 5 4v13l1 1h3l1-1V30c0-6-3-9-9-9l-9 1zM110 62v10h-2V61h10v11h-2V62h-6zm12-1h2v1l1-1 3-1 3 2 2 4c0 3-1 4-2 5l-3 2-3-1-1-1v6h-2V61zm2 6v3l2 1h1a4 4 0 0 0 1 0l2-1 1-4-1-3-3-1h-1l-2 1v4zm11-1l1-4 5-2 4 2 1 4-1 5-4 2-5-2-1-5zm2 0v1l1 3 3 1 2-1 1-3v-1-1l-1-2-2-1-3 1-1 2v1zm14 4l6-9h2v11h-2v-9l-6 9h-2V61h2v9zm11-1h2v2h5l1-2-1-1a3 3 0 0 0-1-1h-3v-1h2l1-1h1v-1-1l-1-1h-3l-1 2h-2v-1l1-2 4-1 3 1 1 2a4 4 0 0 1 0 1v1l-2 1h1l1 1 1 2-1 3-4 1-4-1-1-2v-1zm13-8h8l1 2-1 2a3 3 0 0 1-1 1l2 1v4l-2 1h-1-6V61zm2 6v4h4l1-1v-1-1l-1-1h-4zm0-5v3h4l1-1-1-1a2 2 0 0 0-1-1h-3zm9 4l2-4 4-2 4 2 2 4-2 5-4 2-4-2-2-5zm2 0v1h1v3l3 1 3-1 1-3v-1-1l-1-2-3-1-3 1v2l-1 1zm11 5h1l1-1 1-3v-6h9v10h2l-1 4h-1v-3h-10v3h-2v-4zm10-9h-5v2a20 20 0 0 1-1 5 7 7 0 0 1-1 2h7v-9zm14 6h2a8 8 0 0 1-1 2l-1 2-4 1-4-2-1-4v-1-1-2l2-2 3-1 4 1a5 5 0 0 1 1 3h-1a3 3 0 0 0-1-1l-1-1h-2l-2 1-1 2v1l1 4 2 1a3 3 0 0 0 3-1l1-1v-1zm7-6h-4v-1h10v1h-4v10h-2V62zm8-1h7l1 1 1 1-1 2a3 3 0 0 1-1 1l2 1v4l-2 1h-1-6V61zm2 6v4h4l1-1v-1-1l-1-1h-4zm0-5v4h3v-1h2v-1-1a2 2 0 0 0-2-1h-3zm10 4l1-4 4-2 5 2 1 4-1 5-5 2-4-2-1-5zm2 0v1l1 3 2 1 3-1 1-3v-1-1l-1-2-3-1-2 1a6 6 0 0 0-1 3zm19-5h2v1l2-1 2-1 4 2 1 4-1 5-4 2-2-1-2-1v6h-2V61zm2 6l1 3 2 1a4 4 0 0 0 2 0l2-1v-4l-1-3-2-1h-1l-2 1-1 4zm20 2h3-1l-1 3-4 1h-1l-1-1-3-2-1-3 1-4 3-2a6 6 0 0 1 2-1l4 1 1 3a8 8 0 0 1 1 2v1h-9a9 9 0 0 0 0 2l1 1 2 1h2l2-2zm-6-3h7a5 5 0 0 0-1-2l-1-2h-2l-2 1a4 4 0 0 0-1 2v1zm13 0l5-5h3l-6 5 6 6h-2l-6-6v6h-2V61h2v5zm8 6v-1h1l2-2v-8h8v11h-2V62h-4v5l-1 4-3 1h-1zm16-8h-2a4 4 0 0 1 1-1l1-2 3-1 3 1 2 2v8h1v1h-2l-1-1-2 1-2 1-3-1-1-3 1-2 5-1v-1h1l1-1-1-2h-4l-1 1v1zm6 3v-1l-1 1h-4l-1 2a2 2 0 0 0 0 1l1 1h1a4 4 0 0 0 1 0l2-1 1-3zm11 5l-4-9v9h-2V61h3l4 9 4-9h3v11h-2v-9l-4 9h-2zm11-11h2v4h5l2 1 1 3-1 2-2 1h-7V61zm2 6v4h4l1-1 1-1-1-2h-2-3zm9-6h2v11h-2V61z" class="fil1"/></g></svg>