<svg xmlns="http://www.w3.org/2000/svg" width="192" height="192" fill-rule="evenodd" clip-rule="evenodd" image-rendering="optimizeQuality" shape-rendering="geometricPrecision" text-rendering="geometricPrecision" viewBox="0 0 5080 5080"><defs><style>.fil1{fill:#000}</style></defs><g id="Слой_x0020_1"><circle cx="2476" cy="3168" r="1640" fill="#ffea00"/><g id="_2817288948896"><path d="M1780 2749c-38 0-70 31-70 70 0 38 31 70 70 70 38 0 70-31 70-70 0-38-31-70-70-70zM1780 3027c-38 0-70 31-70 70v877c0 38 31 70 70 70 38 0 70-31 70-70v-877c0-38-31-70-70-70z" class="fil1"/><path d="M3711 810a70 70 0 0 0-109-39c-70 51-419 313-476 469-34 93-26 195 19 281-85 122-174 291-252 457V827c0-38-31-70-70-70h-557c-38 0-70 31-70 70v1364h-12l-119-463v-1l-108-403-2-7-1-2-2-5-1-2-3-4-1-2-3-4-1-1-413-487a70 70 0 0 0-122 32l-125 631v1l-1 5v16l2 7 108 403 72 287a209 209 0 0 0-34 403v1376c0 192 156 348 348 348h1392c192 0 348-156 348-348V2595a206 206 0 0 0 139-197c0-102-73-187-170-205 45-184 77-368 89-512 93-36 166-110 201-205 57-157-48-584-69-668zm-473 823a363 363 0 0 0 199 74c-14 139-46 312-90 484h-398c106-241 204-431 288-559zm-901-736h418v160h-139c-38 0-70 31-70 70 0 38 31 70 70 70h139v139h-139c-38 0-70 31-70 70 0 38 31 70 70 70h139v139h-139c-38 0-70 31-70 70 0 38 31 70 70 70h139v139h-139c-38 0-70 31-70 70 0 38 31 70 70 70h139v160h-418V899zm-819 114l286 337a322 322 0 0 1-372 100l86-437zm-63 589a492 492 0 0 0 215-6c71-19 135-54 189-102l73 272 110 428h-433l-80-318v-1l-73-273zm1926 2374c0 115-94 209-209 209H1780c-115 0-209-94-209-209V2610h1810v1364zm139-1573a68 68 0 0 1-69 69H1502a70 70 0 0 1-50-119c13-13 31-20 49-20h1947c38 0 70 31 70 70zm129-970a211 211 0 0 1-268 125 207 207 0 0 1-125-267c26-72 196-224 344-341 41 185 75 412 49 483z" class="fil1"/></g></g></svg>