<svg xmlns="http://www.w3.org/2000/svg" width="642" height="642" fill-rule="evenodd" clip-rule="evenodd" image-rendering="optimizeQuality" shape-rendering="geometricPrecision" text-rendering="geometricPrecision" viewBox="0 0 16988 16988"><g fill-rule="nonzero"><path fill="#f0bb3e" d="M0 8494a8494 8494 0 1 1 16988 0A8494 8494 0 0 1 0 8494z"/><path fill="#fcc84e" d="M1285 8494a7209 7209 0 1 1 14418 0 7209 7209 0 0 1-14418 0z"/><path fill="#fefefe" d="M6579 5024v3490H5551v1071h1028v454H5551v1071h1028v855h1140v-855h2176v-1071H7719v-454h1418c654 0 1200-218 1636-654 446-446 664-982 664-1626s-218-1190-664-1626c-436-436-982-654-1636-654H6579zm1140 3490V6095h1418c674 0 1160 506 1160 1210s-486 1210-1160 1210H7719z"/></g></svg>